<svg width="413" height="396" viewBox="0 0 413 396" fill="none" xmlns="http://www.w3.org/2000/svg">
<path d="M179.966 19.9838C188.26 -5.57111 224.375 -5.57111 232.669 19.9838L262.304 111.29C266.013 122.719 276.652 130.457 288.656 130.457H384.557C411.398 130.457 422.558 164.841 400.843 180.634L323.257 237.065C313.546 244.128 309.482 256.648 313.192 268.076L342.827 359.383C351.121 384.938 321.904 406.188 300.189 390.394L222.604 333.964C212.893 326.901 199.743 326.901 190.031 333.964L112.446 390.394C90.7309 406.188 61.5138 384.938 69.8082 359.383L99.4433 268.076C103.153 256.648 99.0891 244.128 89.3779 237.065L11.7921 180.634C-9.92265 164.841 1.23727 130.457 28.0782 130.457H123.98C135.983 130.457 146.622 122.719 150.331 111.29L179.966 19.9838Z" fill="white" fill-opacity="0.3"/>
</svg>
