<svg width="243" height="270" viewBox="0 0 243 270" fill="none" xmlns="http://www.w3.org/2000/svg">
<path d="M7.94531 256.048C26.7951 256.862 6.82122 255.989 40.0427 257.52C73.3776 259.056 106.96 261.707 140.351 261.328C146.483 261.259 149.22 262.897 147.759 258.752C146.773 255.953 144.641 253.584 142.607 251.504C130.948 239.584 115.687 231.641 102.829 221.167C96.0396 215.635 89.3501 209.967 82.9565 203.982C79.3316 200.589 52.7416 174.295 48.875 167.468C47.8203 165.606 48.053 161.486 50.1711 161.18C56.6961 160.237 63.2275 163.087 69.6759 164.46C81.6002 166.999 93.3244 170.43 105.261 172.909C129.225 177.884 149.505 181.667 173.728 182.205C186.042 182.479 198.085 180.819 209.17 175.373C210.155 174.888 214.625 172.039 215.41 170.733C218.22 166.058 212.865 158.508 210.722 155.196C200.073 138.739 184.157 129.019 166.928 120.458C150.68 112.386 133.878 105.415 116.942 98.9375C103.753 93.8932 90.2413 89.5154 77.3882 83.6249C74.0733 82.1057 58.122 76.0373 63.5156 69.2243C65.3095 66.9584 66.7513 66.6042 69.8519 66.1522C81.341 64.4773 93.9557 65.7731 105.389 66.9522C135.018 70.0076 163.73 78.6682 193.313 81.9288C202.93 82.9887 212.666 83.0483 222.226 81.4168C223.961 81.1207 228.175 80.6229 228.627 78.1367C228.83 77.0158 228.525 76.2956 228.003 75.2885C226.091 71.6014 222.688 68.23 220.018 65.1921C210.684 54.5729 199.952 44.4683 193.425 31.7507C189.905 24.8925 187.772 16.5165 195.153 11.2058C199.443 8.11879 205.24 7.97434 210.258 8.0697C218.611 8.22842 226.647 9.9125 234.899 10.9498" stroke="#4467F7" stroke-width="15.3049" stroke-linecap="round"/>
<path d="M7.94531 256.048C26.7951 256.862 6.82122 255.989 40.0427 257.52C73.3776 259.056 106.96 261.707 140.351 261.328C146.483 261.259 149.22 262.897 147.759 258.752C146.773 255.953 144.641 253.584 142.607 251.504C130.948 239.584 115.687 231.641 102.829 221.167C96.0396 215.635 89.3501 209.967 82.9565 203.982C79.3316 200.589 52.7416 174.295 48.875 167.468C47.8203 165.606 48.053 161.486 50.1711 161.18C56.6961 160.237 63.2275 163.087 69.6759 164.46C81.6002 166.999 93.3244 170.43 105.261 172.909C129.225 177.884 149.505 181.667 173.728 182.205C186.042 182.479 198.085 180.819 209.17 175.373C210.155 174.888 214.625 172.039 215.41 170.733C218.22 166.058 212.865 158.508 210.722 155.196C200.073 138.739 184.157 129.019 166.928 120.458C150.68 112.386 133.878 105.415 116.942 98.9375C103.753 93.8932 90.2413 89.5154 77.3882 83.6249C74.0733 82.1057 58.122 76.0373 63.5156 69.2243C65.3095 66.9584 66.7513 66.6042 69.8519 66.1522C81.341 64.4773 93.9557 65.7731 105.389 66.9522C135.018 70.0076 163.73 78.6682 193.313 81.9288C202.93 82.9887 212.666 83.0483 222.226 81.4168C223.961 81.1207 228.175 80.6229 228.627 78.1367C228.83 77.0158 228.525 76.2956 228.003 75.2885C226.091 71.6014 222.688 68.23 220.018 65.1921C210.684 54.5729 199.952 44.4683 193.425 31.7507C189.905 24.8925 187.772 16.5165 195.153 11.2058C199.443 8.11879 205.24 7.97434 210.258 8.0697C218.611 8.22842 226.647 9.9125 234.899 10.9498" stroke="#6D89FF" stroke-width="15.3049" stroke-linecap="round"/>
</svg>
