<svg width="333" height="370" viewBox="0 0 333 370" fill="none" xmlns="http://www.w3.org/2000/svg">
<path d="M10.7148 351.652C36.5788 352.768 9.17247 351.571 54.7559 353.672C100.495 355.78 146.574 359.417 192.39 358.897C200.804 358.801 204.559 361.049 202.555 355.362C201.201 351.521 198.277 348.271 195.485 345.417C179.488 329.061 158.548 318.163 140.906 303.791C131.59 296.201 122.411 288.423 113.638 280.211C108.665 275.556 72.1802 239.477 66.8749 230.111C65.4277 227.556 65.747 221.903 68.6532 221.483C77.6063 220.188 86.5681 224.1 95.416 225.983C111.777 229.467 127.864 234.175 144.243 237.575C177.124 244.402 204.951 249.592 238.187 250.331C255.083 250.706 271.607 248.429 286.817 240.956C288.169 240.292 294.302 236.382 295.379 234.589C299.235 228.175 291.887 217.817 288.947 213.272C274.335 190.69 252.497 177.354 228.857 165.608C206.563 154.531 183.508 144.967 160.27 136.079C142.174 129.157 123.634 123.151 105.998 115.068C101.45 112.984 79.5627 104.657 86.9635 95.309C89.4248 92.2 91.4032 91.7139 95.6575 91.0937C111.422 88.7956 128.731 90.5736 144.419 92.1914C185.072 96.3839 224.468 108.267 265.06 112.741C278.255 114.195 291.614 114.277 304.732 112.038C307.113 111.632 312.894 110.949 313.514 107.538C313.793 106 313.374 105.012 312.658 103.63C310.034 98.5707 305.366 93.9447 301.702 89.7764C288.895 75.2057 274.169 61.3411 265.214 43.8911C260.384 34.4809 257.457 22.9882 267.585 15.7013C273.471 11.4656 281.424 11.2674 288.31 11.3982C299.771 11.616 310.798 13.9267 322.12 15.3501" stroke="#6D89FF" stroke-width="21" stroke-linecap="round"/>
</svg>
