<svg width="276" height="307" viewBox="0 0 276 307" fill="none" xmlns="http://www.w3.org/2000/svg">
<path d="M8.92383 291.609C30.3666 292.534 7.64511 291.542 45.4365 293.284C83.357 295.031 121.559 298.047 159.543 297.616C166.519 297.536 169.632 299.4 167.971 294.685C166.848 291.501 164.424 288.806 162.11 286.44C148.847 272.88 131.486 263.844 116.86 251.929C109.136 245.637 101.527 239.188 94.2536 232.381C90.1301 228.521 59.8823 198.61 55.4839 190.844C54.284 188.726 54.5487 184.039 56.9582 183.691C64.3808 182.617 71.8107 185.861 79.1462 187.422C92.7108 190.31 106.048 194.214 119.627 197.033C146.887 202.692 169.957 206.996 197.512 207.608C211.52 207.919 225.219 206.031 237.829 199.836C238.95 199.285 244.034 196.043 244.928 194.557C248.125 189.24 242.033 180.652 239.595 176.883C227.481 158.162 209.376 147.105 189.776 137.367C171.294 128.184 152.18 120.255 132.914 112.886C117.911 107.148 102.541 102.168 87.9194 95.467C84.1485 93.7388 66.0029 86.8357 72.1385 79.0854C74.1791 76.5079 75.8193 76.1049 79.3464 75.5907C92.4159 73.6854 106.766 75.1595 119.772 76.5008C153.477 79.9766 186.138 89.8285 219.791 93.5376C230.73 94.7434 241.806 94.8112 252.682 92.9552C254.655 92.6183 259.448 92.0521 259.962 89.2238C260.194 87.9488 259.846 87.1295 259.252 85.9839C257.078 81.7896 253.207 77.9544 250.17 74.4986C239.552 62.4186 227.343 50.924 219.918 36.457C215.915 28.6553 213.488 19.1272 221.884 13.0859C226.765 9.57421 233.358 9.4099 239.067 9.51837C248.568 9.69892 257.711 11.6147 267.097 12.7947" stroke="#4467F7" stroke-width="17.4103" stroke-linecap="round"/>
<path d="M8.92383 291.609C30.3666 292.534 7.64511 291.542 45.4365 293.284C83.357 295.031 121.559 298.047 159.543 297.616C166.519 297.536 169.632 299.4 167.971 294.685C166.848 291.501 164.424 288.806 162.11 286.44C148.847 272.88 131.486 263.844 116.86 251.929C109.136 245.637 101.527 239.188 94.2536 232.381C90.1301 228.521 59.8823 198.61 55.4839 190.844C54.284 188.726 54.5487 184.039 56.9582 183.691C64.3808 182.617 71.8107 185.861 79.1462 187.422C92.7108 190.31 106.048 194.214 119.627 197.033C146.887 202.692 169.957 206.996 197.512 207.608C211.52 207.919 225.219 206.031 237.829 199.836C238.95 199.285 244.034 196.043 244.928 194.557C248.125 189.24 242.033 180.652 239.595 176.883C227.481 158.162 209.376 147.105 189.776 137.367C171.294 128.184 152.18 120.255 132.914 112.886C117.911 107.148 102.541 102.168 87.9194 95.467C84.1485 93.7388 66.0029 86.8357 72.1385 79.0854C74.1791 76.5079 75.8193 76.1049 79.3464 75.5907C92.4159 73.6854 106.766 75.1595 119.772 76.5008C153.477 79.9766 186.138 89.8285 219.791 93.5376C230.73 94.7434 241.806 94.8112 252.682 92.9552C254.655 92.6183 259.448 92.0521 259.962 89.2238C260.194 87.9488 259.846 87.1295 259.252 85.9839C257.078 81.7896 253.207 77.9544 250.17 74.4986C239.552 62.4186 227.343 50.924 219.918 36.457C215.915 28.6553 213.488 19.1272 221.884 13.0859C226.765 9.57421 233.358 9.4099 239.067 9.51837C248.568 9.69892 257.711 11.6147 267.097 12.7947" stroke="#6D89FF" stroke-width="17.4103" stroke-linecap="round"/>
</svg>
