<svg width="243" height="270" viewBox="0 0 243 270" fill="none" xmlns="http://www.w3.org/2000/svg">
<path d="M7.94531 256.048C26.7951 256.861 6.82122 255.989 40.0427 257.52C73.3776 259.056 106.96 261.707 140.351 261.328C146.483 261.258 149.22 262.896 147.759 258.752C146.773 255.953 144.641 253.583 142.607 251.503C130.948 239.584 115.687 231.641 102.829 221.166C96.0396 215.635 89.3501 209.966 82.9565 203.981C79.3316 200.589 52.7416 174.294 48.875 167.468C47.8203 165.606 48.053 161.486 50.1711 161.18C56.6961 160.236 63.2275 163.087 69.6759 164.46C81.6002 166.998 93.3244 170.43 105.261 172.908C129.225 177.883 149.505 181.666 173.728 182.205C186.042 182.478 198.085 180.819 209.17 175.372C210.155 174.888 214.625 172.038 215.41 170.732C218.22 166.057 212.865 158.508 210.722 155.195C200.073 138.738 184.157 129.018 166.928 120.458C150.68 112.385 133.878 105.415 116.942 98.937C103.753 93.8927 90.2413 89.515 77.3882 83.6244C74.0733 82.1052 58.122 76.0368 63.5156 69.2238C65.3095 66.9579 66.7513 66.6037 69.8519 66.1517C81.341 64.4768 93.9557 65.7726 105.389 66.9517C135.018 70.0071 163.73 78.6677 193.313 81.9283C202.93 82.9882 212.666 83.0479 222.226 81.4163C223.961 81.1202 228.175 80.6224 228.627 78.1362C228.83 77.0153 228.525 76.2951 228.003 75.2881C226.091 71.6009 222.688 68.2295 220.018 65.1916C210.684 54.5724 199.952 44.4678 193.425 31.7502C189.905 24.892 187.772 16.5161 195.153 11.2053C199.443 8.1183 205.24 7.97385 210.258 8.06921C218.611 8.22793 226.647 9.91201 234.899 10.9493" stroke="#4467F7" stroke-width="15.3049" stroke-linecap="round"/>
<path d="M7.94531 256.048C26.7951 256.861 6.82122 255.989 40.0427 257.52C73.3776 259.056 106.96 261.707 140.351 261.328C146.483 261.258 149.22 262.896 147.759 258.752C146.773 255.953 144.641 253.583 142.607 251.503C130.948 239.584 115.687 231.641 102.829 221.166C96.0396 215.635 89.3501 209.966 82.9565 203.981C79.3316 200.589 52.7416 174.294 48.875 167.468C47.8203 165.606 48.053 161.486 50.1711 161.18C56.6961 160.236 63.2275 163.087 69.6759 164.46C81.6002 166.998 93.3244 170.43 105.261 172.908C129.225 177.883 149.505 181.666 173.728 182.205C186.042 182.478 198.085 180.819 209.17 175.372C210.155 174.888 214.625 172.038 215.41 170.732C218.22 166.057 212.865 158.508 210.722 155.195C200.073 138.738 184.157 129.018 166.928 120.458C150.68 112.385 133.878 105.415 116.942 98.937C103.753 93.8927 90.2413 89.515 77.3882 83.6244C74.0733 82.1052 58.122 76.0368 63.5156 69.2238C65.3095 66.9579 66.7513 66.6037 69.8519 66.1517C81.341 64.4768 93.9557 65.7726 105.389 66.9517C135.018 70.0071 163.73 78.6677 193.313 81.9283C202.93 82.9882 212.666 83.0479 222.226 81.4163C223.961 81.1202 228.175 80.6224 228.627 78.1362C228.83 77.0153 228.525 76.2951 228.003 75.2881C226.091 71.6009 222.688 68.2295 220.018 65.1916C210.684 54.5724 199.952 44.4678 193.425 31.7502C189.905 24.892 187.772 16.5161 195.153 11.2053C199.443 8.1183 205.24 7.97385 210.258 8.06921C218.611 8.22793 226.647 9.91201 234.899 10.9493" stroke="#6D89FF" stroke-width="15.3049" stroke-linecap="round"/>
</svg>
