<svg width="339" height="762" viewBox="0 0 339 762" fill="none" xmlns="http://www.w3.org/2000/svg">
<path fill-rule="evenodd" clip-rule="evenodd" d="M116.151 -122.566C156.131 -189.733 199.18 -255.206 242.69 -321.379C262.22 -351.082 281.842 -380.926 301.322 -411.127C342.199 -474.504 345.392 -479.338 348.541 -484.199C350.84 -487.749 353.116 -491.314 370.028 -517.703C381.798 -536.07 376.451 -560.502 358.083 -572.273C339.716 -584.043 315.284 -578.695 303.514 -560.328C286.557 -533.869 284.408 -530.5 282.235 -527.146C279.255 -522.547 276.231 -517.977 234.933 -453.947C216.294 -425.049 197.192 -395.997 177.959 -366.747C124.579 -285.565 70.1964 -202.858 21.941 -117.679C19.8259 -113.945 17.6956 -110.766 15.3361 -107.308C15.1922 -107.097 15.0189 -106.846 14.8208 -106.559C13.0236 -103.954 9.18489 -98.3912 6.67582 -92.9857C4.01131 -87.2453 -4.68008 -65.0634 12.6402 -45.1098C19.0239 -37.7556 26.4255 -34.2077 30.7264 -32.5029C35.2927 -30.6929 39.6933 -29.6815 43.0244 -29.048C64.0173 -25.0558 84.0681 -29.9857 95.0002 -32.7487C130.691 -41.7694 163.778 -56.2214 194.094 -70.3567C200.993 -73.5736 207.7 -76.7483 214.273 -79.8591C237.529 -90.867 259.093 -101.074 281.499 -109.518C313.372 -121.53 345.024 -132.749 376.89 -142.315C385.381 -144.864 424.944 -155.72 466.408 -165.925C476.723 -168.463 487.045 -170.934 496.94 -173.207C481.921 -156.663 466.247 -140.591 449.992 -123.922L448.544 -122.437C431.821 -105.287 414.509 -87.4972 397.829 -68.9154C333.134 3.16023 277.974 67.0238 226.124 151.783C198.709 196.598 177.442 247.072 173.448 303.967C173.078 309.229 173.43 317.963 174.011 324.906C174.333 328.755 174.822 333.263 175.581 337.612L175.59 337.667C176.083 340.492 177.501 348.626 181.683 356.231C196.938 383.976 227.034 389.565 240.888 391.186C255.328 392.875 270.305 392.035 277.809 391.615C278.821 391.558 279.698 391.509 280.418 391.474C368.755 387.274 440.939 347.154 505.491 304.595C566.659 264.266 624.802 219.967 680.981 174.658C695.482 162.963 709.299 151.443 722.825 140.166C749.613 117.832 775.26 96.4488 802.826 76.5334C789.251 99.1208 772.91 121.706 756.171 144.685C722.904 190.355 685.278 232.875 646.141 276.896L643.461 279.911C605.56 322.536 566.296 366.695 531.001 414.441C506.743 447.257 485.187 483.551 470.197 523.649C470.149 523.776 470.067 523.987 469.955 524.271C468.938 526.86 465.505 535.605 463.862 544.391C462.505 551.65 458.623 577.553 480.042 595.838C493.881 607.652 508.285 608.457 514.72 608.769C533.713 609.69 554.906 605.089 567.909 602.266C570.441 601.716 572.663 601.234 574.498 600.873C588.624 598.093 602.053 595.162 614.982 592.34C656.835 583.203 693.447 575.211 731.485 577.216C744.39 577.896 752.987 580.139 757.564 582.716C759.413 583.757 759.869 584.446 759.923 584.525C759.981 584.61 760.112 584.816 760.271 585.269C760.436 585.739 760.696 586.664 760.846 588.209C761.425 594.162 758.128 603.497 747.146 621.579C736.57 638.994 724.909 653.509 711.537 670.155C705.064 678.212 698.19 686.768 690.845 696.394C677.61 713.737 680.941 738.524 698.283 751.758C715.625 764.993 740.413 761.662 753.647 744.32C758.446 738.031 763.863 731.277 769.58 724.148C784.431 705.63 801.311 684.582 814.669 662.587L814.696 662.542C824.268 646.782 842.927 616.059 839.475 580.563C836.373 548.665 818.881 526.579 796.322 513.877C776.055 502.467 753.089 499.244 735.642 498.325C685.859 495.702 635.254 506.853 591.733 516.443C580.374 518.945 569.498 521.342 559.244 523.36C558.123 523.58 557.032 523.798 555.968 524.013C566.526 502.397 579.618 481.573 594.529 461.402C627.677 416.558 664.887 374.706 703.503 331.273L705.181 329.387C743.985 285.741 784.148 240.453 820.026 191.198L821.206 189.579C847.072 154.075 878.985 110.27 897.923 63.1318L898.058 62.796C900.179 57.5206 903.732 48.6849 904.859 38.6506C906.219 26.5363 903.912 15.9142 900.125 6.27607C896.235 -3.6242 889.724 -13.1658 879.781 -20.2062C869.916 -27.1917 859.259 -29.8852 849.983 -30.4077C833.053 -31.3611 817.624 -25.2977 807.863 -20.6725C790.324 -12.3614 772.549 0.849588 766.106 5.6378C765.142 6.35443 764.431 6.88239 764.014 7.17702C731.201 30.3195 699.494 56.7417 669.314 81.8904C656.38 92.6687 643.726 103.213 631.387 113.165C576.266 157.621 520.279 200.22 462.006 238.64C399.899 279.587 342.728 309.422 276.666 312.564C275.375 312.625 274.096 312.69 272.828 312.755C265.656 313.123 258.847 313.471 252.395 312.95C252.371 312.39 252.35 311.852 252.335 311.344C252.303 310.342 252.293 309.571 252.293 309.068C252.293 309.025 252.293 308.985 252.293 308.949C255.218 268.893 270.352 230.871 293.514 193.008C341.367 114.784 392.398 55.4029 456.62 -16.1449C472.05 -33.335 488.26 -50.0093 505.104 -67.2834L506.916 -69.1413C523.023 -85.6574 539.709 -102.766 555.82 -120.534C559.326 -124.401 563.269 -128.326 568.008 -132.974C568.508 -133.465 569.02 -133.966 569.541 -134.477C573.701 -138.551 578.485 -143.238 583.069 -148.079C593.378 -158.968 605.436 -173.416 613.039 -192.276C619.017 -207.108 616.039 -221.067 611.373 -230.493C607.035 -239.257 600.817 -245.386 595.929 -249.28C586.973 -256.413 573.222 -263.249 557.992 -263.423C545.338 -263.568 526.472 -260.226 509.275 -256.738C490.529 -252.936 468.663 -247.837 447.529 -242.636C405.41 -232.27 364.435 -221.059 354.176 -217.979C319.9 -207.69 286.388 -195.784 253.64 -183.443C227.9 -173.742 202.505 -161.712 178.839 -150.501C172.67 -147.578 166.619 -144.711 160.71 -141.956C145.413 -134.824 130.686 -128.241 116.151 -122.566ZM57.439 -106.729C57.4379 -106.729 57.4748 -106.72 57.5532 -106.703C57.4794 -106.721 57.4402 -106.729 57.439 -106.729ZM517.663 529.804C517.647 529.804 517.697 529.809 517.823 529.819C517.731 529.809 517.676 529.805 517.663 529.804Z" fill="#6D89FF" stroke="#6D89FF" stroke-width="4" stroke-linecap="round"/>
</svg>
