<svg width="339" height="800" viewBox="0 0 339 800" fill="none" xmlns="http://www.w3.org/2000/svg">
<path fill-rule="evenodd" clip-rule="evenodd" d="M116.15 189.434C156.13 122.267 199.179 56.7939 242.689 -9.37938C262.219 -39.082 281.841 -68.9258 301.321 -99.1273C342.198 -162.504 345.391 -167.338 348.54 -172.199C350.839 -175.749 353.115 -179.314 370.027 -205.703C381.797 -224.07 376.45 -248.502 358.082 -260.273C339.715 -272.043 315.283 -266.695 303.513 -248.328C286.556 -221.869 284.407 -218.5 282.234 -215.146C279.254 -210.547 276.23 -205.977 234.932 -141.947C216.293 -113.049 197.191 -83.9968 177.958 -54.7469C124.578 26.4352 70.1954 109.142 21.94 194.321C19.8249 198.055 17.6946 201.234 15.3351 204.692C15.1912 204.903 15.0179 205.154 14.8198 205.441C13.0226 208.046 9.18391 213.609 6.67485 219.014C4.01034 224.755 -4.68106 246.937 12.6393 266.89C19.0229 274.244 26.4245 277.792 30.7254 279.497C35.2917 281.307 39.6924 282.319 43.0235 282.952C64.0163 286.944 84.0671 282.014 94.9992 279.251C130.69 270.231 163.777 255.779 194.093 241.643C200.992 238.426 207.699 235.252 214.272 232.141C237.528 221.133 259.092 210.926 281.498 202.482C313.372 190.47 345.023 179.251 376.889 169.685C385.38 167.136 424.943 156.28 466.407 146.075C476.722 143.537 487.044 141.066 496.939 138.793C481.92 155.337 466.246 171.409 449.991 188.078L448.543 189.563C431.82 206.713 414.508 224.503 397.828 243.085C333.133 315.16 277.973 379.024 226.123 463.783C198.708 508.598 177.441 559.072 173.447 615.967C173.077 621.229 173.429 629.963 174.01 636.906C174.332 640.755 174.821 645.263 175.58 649.612L175.589 649.667C176.082 652.492 177.5 660.626 181.682 668.231C196.937 695.976 227.033 701.565 240.887 703.186C255.327 704.875 270.304 704.035 277.808 703.615C278.82 703.558 279.697 703.509 280.417 703.474C368.754 699.274 440.938 659.154 505.49 616.595C566.658 576.266 624.801 531.967 680.98 486.658C695.481 474.963 709.298 463.443 722.824 452.166C749.612 429.832 775.259 408.449 802.825 388.533C789.25 411.121 772.909 433.706 756.17 456.685C722.903 502.355 685.277 544.875 646.14 588.896L643.46 591.911C605.559 634.536 566.295 678.695 531 726.441C506.742 759.257 485.186 795.551 470.196 835.649C470.148 835.776 470.066 835.987 469.954 836.271C468.937 838.86 465.504 847.605 463.861 856.391C462.504 863.65 458.622 889.553 480.041 907.838C493.88 919.652 508.284 920.457 514.719 920.769C533.712 921.69 554.905 917.089 567.908 914.266C570.44 913.716 572.662 913.234 574.497 912.873C588.623 910.093 602.052 907.162 614.981 904.34C656.834 895.203 693.446 887.211 731.484 889.216C744.389 889.896 752.986 892.139 757.563 894.716C759.412 895.757 759.868 896.446 759.922 896.525C759.98 896.61 760.111 896.816 760.27 897.269C760.435 897.739 760.695 898.664 760.845 900.209C761.424 906.162 758.127 915.497 747.145 933.579C736.569 950.994 724.908 965.509 711.536 982.155C705.063 990.212 698.189 998.768 690.844 1008.39C677.609 1025.74 680.94 1050.52 698.282 1063.76C715.624 1076.99 740.412 1073.66 753.646 1056.32C758.445 1050.03 763.862 1043.28 769.579 1036.15C784.43 1017.63 801.31 996.582 814.668 974.587L814.696 974.542C824.267 958.782 842.926 928.059 839.474 892.563C836.372 860.665 818.88 838.579 796.321 825.877C776.054 814.467 753.088 811.244 735.641 810.325C685.858 807.702 635.253 818.853 591.732 828.443C580.373 830.945 569.497 833.342 559.243 835.36C558.123 835.58 557.031 835.798 555.967 836.013C566.525 814.397 579.617 793.573 594.528 773.402C627.676 728.558 664.887 686.706 703.502 643.273L705.18 641.387C743.984 597.741 784.147 552.453 820.025 503.198L821.205 501.579C847.071 466.075 878.984 422.27 897.922 375.132L898.057 374.796C900.178 369.521 903.731 360.685 904.858 350.651C906.218 338.536 903.911 327.914 900.124 318.276C896.234 308.376 889.723 298.834 879.78 291.794C869.915 284.808 859.258 282.115 849.982 281.592C833.052 280.639 817.623 286.702 807.862 291.328C790.323 299.639 772.548 312.85 766.105 317.638C765.141 318.354 764.43 318.882 764.013 319.177C731.2 342.319 699.493 368.742 669.313 393.89C656.379 404.669 643.725 415.213 631.386 425.165C576.265 469.621 520.278 512.22 462.005 550.64C399.898 591.587 342.727 621.422 276.665 624.564C275.374 624.625 274.095 624.69 272.827 624.755C265.655 625.123 258.846 625.471 252.394 624.95C252.37 624.39 252.349 623.852 252.334 623.344C252.302 622.342 252.292 621.571 252.292 621.068C252.292 621.025 252.292 620.985 252.292 620.949C255.217 580.893 270.351 542.871 293.514 505.008C341.366 426.784 392.397 367.403 456.619 295.855C472.049 278.665 488.259 261.991 505.103 244.717L506.915 242.859C523.022 226.343 539.708 209.234 555.819 191.466C559.325 187.599 563.268 183.674 568.007 179.026C568.507 178.535 569.019 178.034 569.54 177.523C573.7 173.449 578.484 168.762 583.068 163.921C593.377 153.032 605.435 138.584 613.038 119.724C619.016 104.892 616.038 90.9325 611.372 81.5068C607.034 72.7431 600.816 66.6138 595.928 62.72C586.972 55.5866 573.221 48.7507 557.991 48.5765C545.337 48.4318 526.471 51.7738 509.274 55.2618C490.528 59.0638 468.662 64.1631 447.528 69.3643C405.409 79.7302 364.434 90.9407 354.175 94.0206C319.899 104.31 286.387 116.216 253.639 128.557C227.899 138.258 202.504 150.288 178.838 161.499C172.669 164.422 166.618 167.289 160.709 170.044C145.412 177.176 130.685 183.759 116.15 189.434ZM57.438 205.271C57.4369 205.271 57.4738 205.28 57.5522 205.297C57.4784 205.279 57.4392 205.271 57.438 205.271ZM517.663 841.804C517.646 841.804 517.696 841.809 517.822 841.819C517.73 841.809 517.675 841.805 517.663 841.804Z" fill="#6D89FF" stroke="#6D89FF" stroke-width="4" stroke-linecap="round"/>
</svg>
