<svg width="389" height="800" viewBox="0 0 389 800" fill="none" xmlns="http://www.w3.org/2000/svg">
<path d="M-418.616 -495.122C-324.923 -446.288 -424.232 -497.983 -258.832 -412.39C-92.8668 -326.504 77.419 -245.331 238.294 -149.999C267.837 -132.491 285.697 -132.771 267.009 -116.762C254.386 -105.95 237.417 -100.427 221.727 -96.0364C131.808 -70.8745 35.5579 -75.0831 -56.1254 -60.2864C-104.54 -52.4727 -152.855 -43.7104 -200.619 -32.5892C-227.698 -26.284 -430.274 26.7833 -468.14 49.063C-478.469 55.1407 -488.876 75.7719 -479.461 83.188C-450.459 106.034 -410.801 110.496 -375.685 121.893C-310.748 142.969 -244.281 159.155 -179.451 180.56C-49.3061 223.529 59.6397 261.967 178.621 327.18C239.104 360.331 292.862 402.099 331.371 459.549C334.795 464.657 348.491 490.991 348.642 499.525C349.182 530.065 302.073 551.683 282.403 561.746C184.681 611.742 80.2785 614.317 -27.2467 607.591C-128.645 601.247 -229.649 588.006 -329.921 572.001C-408.005 559.537 -485.792 542.934 -564.619 535.513C-584.949 533.599 -679.299 518.366 -672.217 566.509C-669.862 582.52 -663.862 588.276 -650.09 599.149C-599.061 639.441 -534.256 668.477 -475.505 694.773C-323.261 762.914 -159.769 801.305 -7.16882 868.324C42.4363 890.11 89.8224 917.083 131.617 951.763C139.203 958.058 158.241 972.268 153.472 985.592C151.322 991.598 147.823 994.235 142.471 997.657C122.876 1010.19 96.9362 1017.01 75.4803 1024.27C0.478932 1049.63 -79.8616 1068.58 -147.123 1111.99C-183.394 1135.39 -217.191 1170.04 -196.267 1216.46C-184.104 1243.44 -156.398 1260.37 -131.795 1273.96C-90.8427 1296.58 88.6958 1373.93 131.617 1392" stroke="#6D89FF" stroke-width="79" stroke-linecap="round"/>
</svg>
