<svg width="389" height="800" viewBox="0 0 389 800" fill="none" xmlns="http://www.w3.org/2000/svg">
<path d="M-418.616 -183.122C-324.923 -134.288 -424.232 -185.983 -258.832 -100.39C-92.8668 -14.5037 77.419 66.6693 238.294 162.001C267.837 179.509 285.697 179.229 267.009 195.238C254.386 206.05 237.417 211.573 221.727 215.964C131.808 241.125 35.5579 236.917 -56.1254 251.714C-104.54 259.527 -152.855 268.29 -200.619 279.411C-227.698 285.716 -430.274 338.783 -468.14 361.063C-478.469 367.141 -488.876 387.772 -479.461 395.188C-450.459 418.034 -410.801 422.496 -375.685 433.893C-310.748 454.969 -244.281 471.155 -179.451 492.56C-49.3061 535.529 59.6397 573.967 178.621 639.18C239.104 672.331 292.862 714.099 331.371 771.549C334.795 776.657 348.491 802.991 348.642 811.525C349.182 842.065 302.073 863.683 282.403 873.746C184.681 923.742 80.2785 926.317 -27.2467 919.591C-128.645 913.247 -229.649 900.006 -329.921 884.001C-408.005 871.537 -485.792 854.934 -564.619 847.513C-584.949 845.599 -679.299 830.366 -672.217 878.509C-669.862 894.52 -663.862 900.276 -650.09 911.149C-599.061 951.441 -534.256 980.477 -475.505 1006.77C-323.261 1074.91 -159.769 1113.3 -7.16882 1180.32C42.4363 1202.11 89.8224 1229.08 131.617 1263.76C139.203 1270.06 158.241 1284.27 153.472 1297.59C151.322 1303.6 147.823 1306.24 142.471 1309.66C122.876 1322.19 96.9362 1329.01 75.4803 1336.27C0.478932 1361.63 -79.8616 1380.58 -147.123 1423.99C-183.394 1447.39 -217.191 1482.04 -196.267 1528.46C-184.104 1555.44 -156.398 1572.37 -131.795 1585.96C-90.8427 1608.58 88.6958 1685.93 131.617 1704" stroke="#6D89FF" stroke-width="79" stroke-linecap="round"/>
</svg>
