<svg width="655" height="278" viewBox="0 0 655 278" fill="none" xmlns="http://www.w3.org/2000/svg">
<path fill-rule="evenodd" clip-rule="evenodd" d="M98 38.2764C98 69.7566 72.4802 95.2764 41 95.2764V95.2764C34.7781 95.2764 29 99.8781 29 106.1V196.276C29 210.636 40.6406 222.276 55 222.276H283.241C292.548 222.276 301.146 227.252 305.784 235.321L322.559 264.51C331.401 279.897 353.599 279.897 362.441 264.51L379.216 235.321C383.854 227.252 392.451 222.276 401.759 222.276H629C643.359 222.276 655 210.636 655 196.276V39.2764C655 24.917 643.359 13.2764 629 13.2764H118.117C106.172 13.2764 98 26.3306 98 38.2764V38.2764Z" fill="#3658E2"/>
<path fill-rule="evenodd" clip-rule="evenodd" d="M98 26.2764C98 57.7566 72.4802 83.2764 41 83.2764V83.2764C34.7781 83.2764 29 87.8781 29 94.1V184.276C29 198.636 40.6406 210.276 55 210.276H283.241C292.548 210.276 301.146 215.252 305.784 223.321L322.559 252.51C331.401 267.897 353.599 267.897 362.441 252.51L379.216 223.321C383.854 215.252 392.451 210.276 401.759 210.276H629C643.359 210.276 655 198.636 655 184.276V27.2764C655 12.917 643.359 1.27637 629 1.27637H118.117C106.172 1.27637 98 14.3306 98 26.2764V26.2764Z" fill="white"/>
</svg>
