<svg width="375" height="625" viewBox="0 0 375 625" fill="none" xmlns="http://www.w3.org/2000/svg">
<mask id="path-1-inside-1_987_14770" fill="white">
<path d="M-431 0H-352.98V78.6894H-431V0Z"/>
<path d="M-431 78.0444H-352.98V156.734H-431V78.0444Z"/>
<path d="M-431 156.089H-352.98V234.778H-431V156.089Z"/>
<path d="M-431 234.133H-352.98V312.823H-431V234.133Z"/>
<path d="M-431 312.178H-352.98V390.867H-431V312.178Z"/>
<path d="M-431 390.222H-352.98V468.911H-431V390.222Z"/>
<path d="M-431 468.266H-352.98V546.956H-431V468.266Z"/>
<path d="M-431 546.311H-352.98V625H-431V546.311Z"/>
<path d="M-353.625 0H-275.605V78.6894H-353.625V0Z"/>
<path d="M-353.625 78.0444H-275.605V156.734H-353.625V78.0444Z"/>
<path d="M-353.625 156.089H-275.605V234.778H-353.625V156.089Z"/>
<path d="M-353.625 234.133H-275.605V312.823H-353.625V234.133Z"/>
<path d="M-353.625 312.178H-275.605V390.867H-353.625V312.178Z"/>
<path d="M-353.625 390.222H-275.605V468.911H-353.625V390.222Z"/>
<path d="M-353.625 468.266H-275.605V546.956H-353.625V468.266Z"/>
<path d="M-353.625 546.311H-275.605V625H-353.625V546.311Z"/>
<path d="M-276.25 0H-198.23V78.6894H-276.25V0Z"/>
<path d="M-276.25 78.0444H-198.23V156.734H-276.25V78.0444Z"/>
<path d="M-276.25 156.089H-198.23V234.778H-276.25V156.089Z"/>
<path d="M-276.25 234.133H-198.23V312.823H-276.25V234.133Z"/>
<path d="M-276.25 312.178H-198.23V390.867H-276.25V312.178Z"/>
<path d="M-276.25 390.222H-198.23V468.911H-276.25V390.222Z"/>
<path d="M-276.25 468.266H-198.23V546.956H-276.25V468.266Z"/>
<path d="M-276.25 546.311H-198.23V625H-276.25V546.311Z"/>
<path d="M-198.875 0H-120.855V78.6894H-198.875V0Z"/>
<path d="M-198.875 78.0444H-120.855V156.734H-198.875V78.0444Z"/>
<path d="M-198.875 156.089H-120.855V234.778H-198.875V156.089Z"/>
<path d="M-198.875 234.133H-120.855V312.823H-198.875V234.133Z"/>
<path d="M-198.875 312.178H-120.855V390.867H-198.875V312.178Z"/>
<path d="M-198.875 390.222H-120.855V468.911H-198.875V390.222Z"/>
<path d="M-198.875 468.266H-120.855V546.956H-198.875V468.266Z"/>
<path d="M-198.875 546.311H-120.855V625H-198.875V546.311Z"/>
<path d="M-121.5 0H-43.4802V78.6894H-121.5V0Z"/>
<path d="M-121.5 78.0444H-43.4802V156.734H-121.5V78.0444Z"/>
<path d="M-121.5 156.089H-43.4802V234.778H-121.5V156.089Z"/>
<path d="M-121.5 234.133H-43.4802V312.823H-121.5V234.133Z"/>
<path d="M-121.5 312.178H-43.4802V390.867H-121.5V312.178Z"/>
<path d="M-121.5 390.222H-43.4802V468.911H-121.5V390.222Z"/>
<path d="M-121.5 468.266H-43.4802V546.956H-121.5V468.266Z"/>
<path d="M-121.5 546.311H-43.4802V625H-121.5V546.311Z"/>
<path d="M-44.125 0H33.8948V78.6894H-44.125V0Z"/>
<path d="M-44.125 78.0444H33.8948V156.734H-44.125V78.0444Z"/>
<path d="M-44.125 156.089H33.8948V234.778H-44.125V156.089Z"/>
<path d="M-44.125 234.133H33.8948V312.823H-44.125V234.133Z"/>
<path d="M-44.125 312.178H33.8948V390.867H-44.125V312.178Z"/>
<path d="M-44.125 390.222H33.8948V468.911H-44.125V390.222Z"/>
<path d="M-44.125 468.266H33.8948V546.956H-44.125V468.266Z"/>
<path d="M-44.125 546.311H33.8948V625H-44.125V546.311Z"/>
<path d="M33.25 0H111.27V78.6894H33.25V0Z"/>
<path d="M33.25 78.0444H111.27V156.734H33.25V78.0444Z"/>
<path d="M33.25 156.089H111.27V234.778H33.25V156.089Z"/>
<path d="M33.25 234.133H111.27V312.823H33.25V234.133Z"/>
<path d="M33.25 312.178H111.27V390.867H33.25V312.178Z"/>
<path d="M33.25 390.222H111.27V468.911H33.25V390.222Z"/>
<path d="M33.25 468.266H111.27V546.956H33.25V468.266Z"/>
<path d="M33.25 546.311H111.27V625H33.25V546.311Z"/>
<path d="M110.625 0H189.29V78.6894H110.625V0Z"/>
<path d="M110.625 78.0444H189.29V156.734H110.625V78.0444Z"/>
<path d="M110.625 156.089H189.29V234.778H110.625V156.089Z"/>
<path d="M110.625 234.133H189.29V312.823H110.625V234.133Z"/>
<path d="M110.625 312.178H189.29V390.867H110.625V312.178Z"/>
<path d="M110.625 390.222H189.29V468.911H110.625V390.222Z"/>
<path d="M110.625 468.266H189.29V546.956H110.625V468.266Z"/>
<path d="M110.625 546.311H189.29V625H110.625V546.311Z"/>
<path d="M188.645 0H265.375V78.6894H188.645V0Z"/>
<path d="M188.645 78.0444H265.375V156.734H188.645V78.0444Z"/>
<path d="M188.645 156.089H265.375V234.778H188.645V156.089Z"/>
<path d="M188.645 234.133H265.375V312.823H188.645V234.133Z"/>
<path d="M188.645 312.178H265.375V390.867H188.645V312.178Z"/>
<path d="M188.645 390.222H265.375V468.911H188.645V390.222Z"/>
<path d="M188.645 468.266H265.375V546.956H188.645V468.266Z"/>
<path d="M188.645 546.311H265.375V625H188.645V546.311Z"/>
<path d="M264.73 0H342.75V78.6894H264.73V0Z"/>
<path d="M264.73 78.0444H342.75V156.734H264.73V78.0444Z"/>
<path d="M264.73 156.089H342.75V234.778H264.73V156.089Z"/>
<path d="M264.73 234.133H342.75V312.823H264.73V234.133Z"/>
<path d="M264.73 312.178H342.75V390.867H264.73V312.178Z"/>
<path d="M264.73 390.222H342.75V468.911H264.73V390.222Z"/>
<path d="M264.73 468.266H342.75V546.956H264.73V468.266Z"/>
<path d="M264.73 546.311H342.75V625H264.73V546.311Z"/>
<path d="M342.105 0H420.125V78.6894H342.105V0Z"/>
<path d="M342.105 78.0444H420.125V156.734H342.105V78.0444Z"/>
<path d="M342.105 156.089H420.125V234.778H342.105V156.089Z"/>
<path d="M342.105 234.133H420.125V312.823H342.105V234.133Z"/>
<path d="M342.105 312.178H420.125V390.867H342.105V312.178Z"/>
<path d="M342.105 390.222H420.125V468.911H342.105V390.222Z"/>
<path d="M342.105 468.266H420.125V546.956H342.105V468.266Z"/>
<path d="M342.105 546.311H420.125V625H342.105V546.311Z"/>
<path d="M419.48 0H497.5V78.6894H419.48V0Z"/>
<path d="M419.48 78.0444H497.5V156.734H419.48V78.0444Z"/>
<path d="M419.48 156.089H497.5V234.778H419.48V156.089Z"/>
<path d="M419.48 234.133H497.5V312.823H419.48V234.133Z"/>
<path d="M419.48 312.178H497.5V390.867H419.48V312.178Z"/>
<path d="M419.48 390.222H497.5V468.911H419.48V390.222Z"/>
<path d="M419.48 468.266H497.5V546.956H419.48V468.266Z"/>
<path d="M419.48 546.311H497.5V625H419.48V546.311Z"/>
<path d="M496.855 0H574.875V78.6894H496.855V0Z"/>
<path d="M496.855 78.0444H574.875V156.734H496.855V78.0444Z"/>
<path d="M496.855 156.089H574.875V234.778H496.855V156.089Z"/>
<path d="M496.855 234.133H574.875V312.823H496.855V234.133Z"/>
<path d="M496.855 312.178H574.875V390.867H496.855V312.178Z"/>
<path d="M496.855 390.222H574.875V468.911H496.855V390.222Z"/>
<path d="M496.855 468.266H574.875V546.956H496.855V468.266Z"/>
<path d="M496.855 546.311H574.875V625H496.855V546.311Z"/>
<path d="M574.23 0H652.25V78.6894H574.23V0Z"/>
<path d="M574.23 78.0444H652.25V156.734H574.23V78.0444Z"/>
<path d="M574.23 156.089H652.25V234.778H574.23V156.089Z"/>
<path d="M574.23 234.133H652.25V312.823H574.23V234.133Z"/>
<path d="M574.23 312.178H652.25V390.867H574.23V312.178Z"/>
<path d="M574.23 390.222H652.25V468.911H574.23V390.222Z"/>
<path d="M574.23 468.266H652.25V546.956H574.23V468.266Z"/>
<path d="M574.23 546.311H652.25V625H574.23V546.311Z"/>
<path d="M651.605 0H729.625V78.6894H651.605V0Z"/>
<path d="M651.605 78.0444H729.625V156.734H651.605V78.0444Z"/>
<path d="M651.605 156.089H729.625V234.778H651.605V156.089Z"/>
<path d="M651.605 234.133H729.625V312.823H651.605V234.133Z"/>
<path d="M651.605 312.178H729.625V390.867H651.605V312.178Z"/>
<path d="M651.605 390.222H729.625V468.911H651.605V390.222Z"/>
<path d="M651.605 468.266H729.625V546.956H651.605V468.266Z"/>
<path d="M651.605 546.311H729.625V625H651.605V546.311Z"/>
<path d="M728.98 0H807V78.6894H728.98V0Z"/>
<path d="M728.98 78.0444H807V156.734H728.98V78.0444Z"/>
<path d="M728.98 156.089H807V234.778H728.98V156.089Z"/>
<path d="M728.98 234.133H807V312.823H728.98V234.133Z"/>
<path d="M728.98 312.178H807V390.867H728.98V312.178Z"/>
<path d="M728.98 390.222H807V468.911H728.98V390.222Z"/>
<path d="M728.98 468.266H807V546.956H728.98V468.266Z"/>
<path d="M728.98 546.311H807V625H728.98V546.311Z"/>
</mask>
<path d="M-431 624.855H-352.98V623.855H-431V624.855ZM-353.625 624.855H-275.605V623.855H-353.625V624.855ZM-276.25 624.855H-198.23V623.855H-276.25V624.855ZM-198.875 624.855H-120.855V623.855H-198.875V624.855ZM-121.5 624.855H-43.4802V623.855H-121.5V624.855ZM-44.125 624.855H33.8948V623.855H-44.125V624.855ZM33.25 624.855H111.27V623.855H33.25V624.855ZM110.625 624.855H189.29V623.855H110.625V624.855ZM188.645 624.855H265.375V623.855H188.645V624.855ZM264.73 624.855H342.75V623.855H264.73V624.855ZM342.105 624.855H420.125V623.855H342.105V624.855ZM419.48 624.855H497.5V623.855H419.48V624.855ZM496.855 624.855H574.875V623.855H496.855V624.855ZM574.23 624.855H652.25V623.855H574.23V624.855ZM651.605 624.855H729.625V623.855H651.605V624.855ZM728.98 624.855H807V623.855H728.98V624.855ZM-431 0V-1H-432V0H-431ZM-352.98 0H-351.98V-1H-352.98V0ZM-352.98 78.6894V79.6894H-351.98V78.6894H-352.98ZM-431 78.6894H-432V79.6894H-431V78.6894ZM-431 78.0444V77.0444H-432V78.0444H-431ZM-352.98 78.0444H-351.98V77.0444H-352.98V78.0444ZM-352.98 156.734V157.734H-351.98V156.734H-352.98ZM-431 156.734H-432V157.734H-431V156.734ZM-431 156.089V155.089H-432V156.089H-431ZM-352.98 156.089H-351.98V155.089H-352.98V156.089ZM-352.98 234.778V235.778H-351.98V234.778H-352.98ZM-431 234.778H-432V235.778H-431V234.778ZM-431 234.133V233.133H-432V234.133H-431ZM-352.98 234.133H-351.98V233.133H-352.98V234.133ZM-352.98 312.823V313.823H-351.98V312.823H-352.98ZM-431 312.823H-432V313.823H-431V312.823ZM-431 312.178V311.178H-432V312.178H-431ZM-352.98 312.178H-351.98V311.178H-352.98V312.178ZM-352.98 390.867V391.867H-351.98V390.867H-352.98ZM-431 390.867H-432V391.867H-431V390.867ZM-431 390.222V389.222H-432V390.222H-431ZM-352.98 390.222H-351.98V389.222H-352.98V390.222ZM-352.98 468.911V469.911H-351.98V468.911H-352.98ZM-431 468.911H-432V469.911H-431V468.911ZM-431 468.266V467.266H-432V468.266H-431ZM-352.98 468.266H-351.98V467.266H-352.98V468.266ZM-352.98 546.956V547.956H-351.98V546.956H-352.98ZM-431 546.956H-432V547.956H-431V546.956ZM-431 546.311V545.311H-432V546.311H-431ZM-352.98 546.311H-351.98V545.311H-352.98V546.311ZM-352.98 625V626H-351.98V625H-352.98ZM-431 625H-432V626H-431V625ZM-353.625 0V-1H-354.625V0H-353.625ZM-275.605 0H-274.605V-1H-275.605V0ZM-275.605 78.6894V79.6894H-274.605V78.6894H-275.605ZM-353.625 78.6894H-354.625V79.6894H-353.625V78.6894ZM-353.625 78.0444V77.0444H-354.625V78.0444H-353.625ZM-275.605 78.0444H-274.605V77.0444H-275.605V78.0444ZM-275.605 156.734V157.734H-274.605V156.734H-275.605ZM-353.625 156.734H-354.625V157.734H-353.625V156.734ZM-353.625 156.089V155.089H-354.625V156.089H-353.625ZM-275.605 156.089H-274.605V155.089H-275.605V156.089ZM-275.605 234.778V235.778H-274.605V234.778H-275.605ZM-353.625 234.778H-354.625V235.778H-353.625V234.778ZM-353.625 234.133V233.133H-354.625V234.133H-353.625ZM-275.605 234.133H-274.605V233.133H-275.605V234.133ZM-275.605 312.823V313.823H-274.605V312.823H-275.605ZM-353.625 312.823H-354.625V313.823H-353.625V312.823ZM-353.625 312.178V311.178H-354.625V312.178H-353.625ZM-275.605 312.178H-274.605V311.178H-275.605V312.178ZM-275.605 390.867V391.867H-274.605V390.867H-275.605ZM-353.625 390.867H-354.625V391.867H-353.625V390.867ZM-353.625 390.222V389.222H-354.625V390.222H-353.625ZM-275.605 390.222H-274.605V389.222H-275.605V390.222ZM-275.605 468.911V469.911H-274.605V468.911H-275.605ZM-353.625 468.911H-354.625V469.911H-353.625V468.911ZM-353.625 468.266V467.266H-354.625V468.266H-353.625ZM-275.605 468.266H-274.605V467.266H-275.605V468.266ZM-275.605 546.956V547.956H-274.605V546.956H-275.605ZM-353.625 546.956H-354.625V547.956H-353.625V546.956ZM-353.625 546.311V545.311H-354.625V546.311H-353.625ZM-275.605 546.311H-274.605V545.311H-275.605V546.311ZM-275.605 625V626H-274.605V625H-275.605ZM-353.625 625H-354.625V626H-353.625V625ZM-276.25 0V-1H-277.25V0H-276.25ZM-198.23 0H-197.23V-1H-198.23V0ZM-198.23 78.6894V79.6894H-197.23V78.6894H-198.23ZM-276.25 78.6894H-277.25V79.6894H-276.25V78.6894ZM-276.25 78.0444V77.0444H-277.25V78.0444H-276.25ZM-198.23 78.0444H-197.23V77.0444H-198.23V78.0444ZM-198.23 156.734V157.734H-197.23V156.734H-198.23ZM-276.25 156.734H-277.25V157.734H-276.25V156.734ZM-276.25 156.089V155.089H-277.25V156.089H-276.25ZM-198.23 156.089H-197.23V155.089H-198.23V156.089ZM-198.23 234.778V235.778H-197.23V234.778H-198.23ZM-276.25 234.778H-277.25V235.778H-276.25V234.778ZM-276.25 234.133V233.133H-277.25V234.133H-276.25ZM-198.23 234.133H-197.23V233.133H-198.23V234.133ZM-198.23 312.823V313.823H-197.23V312.823H-198.23ZM-276.25 312.823H-277.25V313.823H-276.25V312.823ZM-276.25 312.178V311.178H-277.25V312.178H-276.25ZM-198.23 312.178H-197.23V311.178H-198.23V312.178ZM-198.23 390.867V391.867H-197.23V390.867H-198.23ZM-276.25 390.867H-277.25V391.867H-276.25V390.867ZM-276.25 390.222V389.222H-277.25V390.222H-276.25ZM-198.23 390.222H-197.23V389.222H-198.23V390.222ZM-198.23 468.911V469.911H-197.23V468.911H-198.23ZM-276.25 468.911H-277.25V469.911H-276.25V468.911ZM-276.25 468.266V467.266H-277.25V468.266H-276.25ZM-198.23 468.266H-197.23V467.266H-198.23V468.266ZM-198.23 546.956V547.956H-197.23V546.956H-198.23ZM-276.25 546.956H-277.25V547.956H-276.25V546.956ZM-276.25 546.311V545.311H-277.25V546.311H-276.25ZM-198.23 546.311H-197.23V545.311H-198.23V546.311ZM-198.23 625V626H-197.23V625H-198.23ZM-276.25 625H-277.25V626H-276.25V625ZM-198.875 0V-1H-199.875V0H-198.875ZM-120.855 0H-119.855V-1H-120.855V0ZM-120.855 78.6894V79.6894H-119.855V78.6894H-120.855ZM-198.875 78.6894H-199.875V79.6894H-198.875V78.6894ZM-198.875 78.0444V77.0444H-199.875V78.0444H-198.875ZM-120.855 78.0444H-119.855V77.0444H-120.855V78.0444ZM-120.855 156.734V157.734H-119.855V156.734H-120.855ZM-198.875 156.734H-199.875V157.734H-198.875V156.734ZM-198.875 156.089V155.089H-199.875V156.089H-198.875ZM-120.855 156.089H-119.855V155.089H-120.855V156.089ZM-120.855 234.778V235.778H-119.855V234.778H-120.855ZM-198.875 234.778H-199.875V235.778H-198.875V234.778ZM-198.875 234.133V233.133H-199.875V234.133H-198.875ZM-120.855 234.133H-119.855V233.133H-120.855V234.133ZM-120.855 312.823V313.823H-119.855V312.823H-120.855ZM-198.875 312.823H-199.875V313.823H-198.875V312.823ZM-198.875 312.178V311.178H-199.875V312.178H-198.875ZM-120.855 312.178H-119.855V311.178H-120.855V312.178ZM-120.855 390.867V391.867H-119.855V390.867H-120.855ZM-198.875 390.867H-199.875V391.867H-198.875V390.867ZM-198.875 390.222V389.222H-199.875V390.222H-198.875ZM-120.855 390.222H-119.855V389.222H-120.855V390.222ZM-120.855 468.911V469.911H-119.855V468.911H-120.855ZM-198.875 468.911H-199.875V469.911H-198.875V468.911ZM-198.875 468.266V467.266H-199.875V468.266H-198.875ZM-120.855 468.266H-119.855V467.266H-120.855V468.266ZM-120.855 546.956V547.956H-119.855V546.956H-120.855ZM-198.875 546.956H-199.875V547.956H-198.875V546.956ZM-198.875 546.311V545.311H-199.875V546.311H-198.875ZM-120.855 546.311H-119.855V545.311H-120.855V546.311ZM-120.855 625V626H-119.855V625H-120.855ZM-198.875 625H-199.875V626H-198.875V625ZM-121.5 0V-1H-122.5V0H-121.5ZM-43.4802 0H-42.4802V-1H-43.4802V0ZM-43.4802 78.6894V79.6894H-42.4802V78.6894H-43.4802ZM-121.5 78.6894H-122.5V79.6894H-121.5V78.6894ZM-121.5 78.0444V77.0444H-122.5V78.0444H-121.5ZM-43.4802 78.0444H-42.4802V77.0444H-43.4802V78.0444ZM-43.4802 156.734V157.734H-42.4802V156.734H-43.4802ZM-121.5 156.734H-122.5V157.734H-121.5V156.734ZM-121.5 156.089V155.089H-122.5V156.089H-121.5ZM-43.4802 156.089H-42.4802V155.089H-43.4802V156.089ZM-43.4802 234.778V235.778H-42.4802V234.778H-43.4802ZM-121.5 234.778H-122.5V235.778H-121.5V234.778ZM-121.5 234.133V233.133H-122.5V234.133H-121.5ZM-43.4802 234.133H-42.4802V233.133H-43.4802V234.133ZM-43.4802 312.823V313.823H-42.4802V312.823H-43.4802ZM-121.5 312.823H-122.5V313.823H-121.5V312.823ZM-121.5 312.178V311.178H-122.5V312.178H-121.5ZM-43.4802 312.178H-42.4802V311.178H-43.4802V312.178ZM-43.4802 390.867V391.867H-42.4802V390.867H-43.4802ZM-121.5 390.867H-122.5V391.867H-121.5V390.867ZM-121.5 390.222V389.222H-122.5V390.222H-121.5ZM-43.4802 390.222H-42.4802V389.222H-43.4802V390.222ZM-43.4802 468.911V469.911H-42.4802V468.911H-43.4802ZM-121.5 468.911H-122.5V469.911H-121.5V468.911ZM-121.5 468.266V467.266H-122.5V468.266H-121.5ZM-43.4802 468.266H-42.4802V467.266H-43.4802V468.266ZM-43.4802 546.956V547.956H-42.4802V546.956H-43.4802ZM-121.5 546.956H-122.5V547.956H-121.5V546.956ZM-121.5 546.311V545.311H-122.5V546.311H-121.5ZM-43.4802 546.311H-42.4802V545.311H-43.4802V546.311ZM-43.4802 625V626H-42.4802V625H-43.4802ZM-121.5 625H-122.5V626H-121.5V625ZM-44.125 0V-1H-45.125V0H-44.125ZM33.8948 0H34.8948V-1H33.8948V0ZM33.8948 78.6894V79.6894H34.8948V78.6894H33.8948ZM-44.125 78.6894H-45.125V79.6894H-44.125V78.6894ZM-44.125 78.0444V77.0444H-45.125V78.0444H-44.125ZM33.8948 78.0444H34.8948V77.0444H33.8948V78.0444ZM33.8948 156.734V157.734H34.8948V156.734H33.8948ZM-44.125 156.734H-45.125V157.734H-44.125V156.734ZM-44.125 156.089V155.089H-45.125V156.089H-44.125ZM33.8948 156.089H34.8948V155.089H33.8948V156.089ZM33.8948 234.778V235.778H34.8948V234.778H33.8948ZM-44.125 234.778H-45.125V235.778H-44.125V234.778ZM-44.125 234.133V233.133H-45.125V234.133H-44.125ZM33.8948 234.133H34.8948V233.133H33.8948V234.133ZM33.8948 312.823V313.823H34.8948V312.823H33.8948ZM-44.125 312.823H-45.125V313.823H-44.125V312.823ZM-44.125 312.178V311.178H-45.125V312.178H-44.125ZM33.8948 312.178H34.8948V311.178H33.8948V312.178ZM33.8948 390.867V391.867H34.8948V390.867H33.8948ZM-44.125 390.867H-45.125V391.867H-44.125V390.867ZM-44.125 390.222V389.222H-45.125V390.222H-44.125ZM33.8948 390.222H34.8948V389.222H33.8948V390.222ZM33.8948 468.911V469.911H34.8948V468.911H33.8948ZM-44.125 468.911H-45.125V469.911H-44.125V468.911ZM-44.125 468.266V467.266H-45.125V468.266H-44.125ZM33.8948 468.266H34.8948V467.266H33.8948V468.266ZM33.8948 546.956V547.956H34.8948V546.956H33.8948ZM-44.125 546.956H-45.125V547.956H-44.125V546.956ZM-44.125 546.311V545.311H-45.125V546.311H-44.125ZM33.8948 546.311H34.8948V545.311H33.8948V546.311ZM33.8948 625V626H34.8948V625H33.8948ZM-44.125 625H-45.125V626H-44.125V625ZM33.25 0V-1H32.25V0H33.25ZM111.27 0H112.27V-1H111.27V0ZM111.27 78.6894V79.6894H112.27V78.6894H111.27ZM33.25 78.6894H32.25V79.6894H33.25V78.6894ZM33.25 78.0444V77.0444H32.25V78.0444H33.25ZM111.27 78.0444H112.27V77.0444H111.27V78.0444ZM111.27 156.734V157.734H112.27V156.734H111.27ZM33.25 156.734H32.25V157.734H33.25V156.734ZM33.25 156.089V155.089H32.25V156.089H33.25ZM111.27 156.089H112.27V155.089H111.27V156.089ZM111.27 234.778V235.778H112.27V234.778H111.27ZM33.25 234.778H32.25V235.778H33.25V234.778ZM33.25 234.133V233.133H32.25V234.133H33.25ZM111.27 234.133H112.27V233.133H111.27V234.133ZM111.27 312.823V313.823H112.27V312.823H111.27ZM33.25 312.823H32.25V313.823H33.25V312.823ZM33.25 312.178V311.178H32.25V312.178H33.25ZM111.27 312.178H112.27V311.178H111.27V312.178ZM111.27 390.867V391.867H112.27V390.867H111.27ZM33.25 390.867H32.25V391.867H33.25V390.867ZM33.25 390.222V389.222H32.25V390.222H33.25ZM111.27 390.222H112.27V389.222H111.27V390.222ZM111.27 468.911V469.911H112.27V468.911H111.27ZM33.25 468.911H32.25V469.911H33.25V468.911ZM33.25 468.266V467.266H32.25V468.266H33.25ZM111.27 468.266H112.27V467.266H111.27V468.266ZM111.27 546.956V547.956H112.27V546.956H111.27ZM33.25 546.956H32.25V547.956H33.25V546.956ZM33.25 546.311V545.311H32.25V546.311H33.25ZM111.27 546.311H112.27V545.311H111.27V546.311ZM111.27 625V626H112.27V625H111.27ZM33.25 625H32.25V626H33.25V625ZM110.625 0V-1H109.625V0H110.625ZM189.29 0H190.29V-1H189.29V0ZM189.29 78.6894V79.6894H190.29V78.6894H189.29ZM110.625 78.6894H109.625V79.6894H110.625V78.6894ZM110.625 78.0444V77.0444H109.625V78.0444H110.625ZM189.29 78.0444H190.29V77.0444H189.29V78.0444ZM189.29 156.734V157.734H190.29V156.734H189.29ZM110.625 156.734H109.625V157.734H110.625V156.734ZM110.625 156.089V155.089H109.625V156.089H110.625ZM189.29 156.089H190.29V155.089H189.29V156.089ZM189.29 234.778V235.778H190.29V234.778H189.29ZM110.625 234.778H109.625V235.778H110.625V234.778ZM110.625 234.133V233.133H109.625V234.133H110.625ZM189.29 234.133H190.29V233.133H189.29V234.133ZM189.29 312.823V313.823H190.29V312.823H189.29ZM110.625 312.823H109.625V313.823H110.625V312.823ZM110.625 312.178V311.178H109.625V312.178H110.625ZM189.29 312.178H190.29V311.178H189.29V312.178ZM189.29 390.867V391.867H190.29V390.867H189.29ZM110.625 390.867H109.625V391.867H110.625V390.867ZM110.625 390.222V389.222H109.625V390.222H110.625ZM189.29 390.222H190.29V389.222H189.29V390.222ZM189.29 468.911V469.911H190.29V468.911H189.29ZM110.625 468.911H109.625V469.911H110.625V468.911ZM110.625 468.266V467.266H109.625V468.266H110.625ZM189.29 468.266H190.29V467.266H189.29V468.266ZM189.29 546.956V547.956H190.29V546.956H189.29ZM110.625 546.956H109.625V547.956H110.625V546.956ZM110.625 546.311V545.311H109.625V546.311H110.625ZM189.29 546.311H190.29V545.311H189.29V546.311ZM189.29 625V626H190.29V625H189.29ZM110.625 625H109.625V626H110.625V625ZM188.645 0V-1H187.645V0H188.645ZM265.375 0H266.375V-1H265.375V0ZM265.375 78.6894V79.6894H266.375V78.6894H265.375ZM188.645 78.6894H187.645V79.6894H188.645V78.6894ZM188.645 78.0444V77.0444H187.645V78.0444H188.645ZM265.375 78.0444H266.375V77.0444H265.375V78.0444ZM265.375 156.734V157.734H266.375V156.734H265.375ZM188.645 156.734H187.645V157.734H188.645V156.734ZM188.645 156.089V155.089H187.645V156.089H188.645ZM265.375 156.089H266.375V155.089H265.375V156.089ZM265.375 234.778V235.778H266.375V234.778H265.375ZM188.645 234.778H187.645V235.778H188.645V234.778ZM188.645 234.133V233.133H187.645V234.133H188.645ZM265.375 234.133H266.375V233.133H265.375V234.133ZM265.375 312.823V313.823H266.375V312.823H265.375ZM188.645 312.823H187.645V313.823H188.645V312.823ZM188.645 312.178V311.178H187.645V312.178H188.645ZM265.375 312.178H266.375V311.178H265.375V312.178ZM265.375 390.867V391.867H266.375V390.867H265.375ZM188.645 390.867H187.645V391.867H188.645V390.867ZM188.645 390.222V389.222H187.645V390.222H188.645ZM265.375 390.222H266.375V389.222H265.375V390.222ZM265.375 468.911V469.911H266.375V468.911H265.375ZM188.645 468.911H187.645V469.911H188.645V468.911ZM188.645 468.266V467.266H187.645V468.266H188.645ZM265.375 468.266H266.375V467.266H265.375V468.266ZM265.375 546.956V547.956H266.375V546.956H265.375ZM188.645 546.956H187.645V547.956H188.645V546.956ZM188.645 546.311V545.311H187.645V546.311H188.645ZM265.375 546.311H266.375V545.311H265.375V546.311ZM265.375 625V626H266.375V625H265.375ZM188.645 625H187.645V626H188.645V625ZM264.73 0V-1H263.73V0H264.73ZM342.75 0H343.75V-1H342.75V0ZM342.75 78.6894V79.6894H343.75V78.6894H342.75ZM264.73 78.6894H263.73V79.6894H264.73V78.6894ZM264.73 78.0444V77.0444H263.73V78.0444H264.73ZM342.75 78.0444H343.75V77.0444H342.75V78.0444ZM342.75 156.734V157.734H343.75V156.734H342.75ZM264.73 156.734H263.73V157.734H264.73V156.734ZM264.73 156.089V155.089H263.73V156.089H264.73ZM342.75 156.089H343.75V155.089H342.75V156.089ZM342.75 234.778V235.778H343.75V234.778H342.75ZM264.73 234.778H263.73V235.778H264.73V234.778ZM264.73 234.133V233.133H263.73V234.133H264.73ZM342.75 234.133H343.75V233.133H342.75V234.133ZM342.75 312.823V313.823H343.75V312.823H342.75ZM264.73 312.823H263.73V313.823H264.73V312.823ZM264.73 312.178V311.178H263.73V312.178H264.73ZM342.75 312.178H343.75V311.178H342.75V312.178ZM342.75 390.867V391.867H343.75V390.867H342.75ZM264.73 390.867H263.73V391.867H264.73V390.867ZM264.73 390.222V389.222H263.73V390.222H264.73ZM342.75 390.222H343.75V389.222H342.75V390.222ZM342.75 468.911V469.911H343.75V468.911H342.75ZM264.73 468.911H263.73V469.911H264.73V468.911ZM264.73 468.266V467.266H263.73V468.266H264.73ZM342.75 468.266H343.75V467.266H342.75V468.266ZM342.75 546.956V547.956H343.75V546.956H342.75ZM264.73 546.956H263.73V547.956H264.73V546.956ZM264.73 546.311V545.311H263.73V546.311H264.73ZM342.75 546.311H343.75V545.311H342.75V546.311ZM342.75 625V626H343.75V625H342.75ZM264.73 625H263.73V626H264.73V625ZM342.105 0V-1H341.105V0H342.105ZM420.125 0H421.125V-1H420.125V0ZM420.125 78.6894V79.6894H421.125V78.6894H420.125ZM342.105 78.6894H341.105V79.6894H342.105V78.6894ZM342.105 78.0444V77.0444H341.105V78.0444H342.105ZM420.125 78.0444H421.125V77.0444H420.125V78.0444ZM420.125 156.734V157.734H421.125V156.734H420.125ZM342.105 156.734H341.105V157.734H342.105V156.734ZM342.105 156.089V155.089H341.105V156.089H342.105ZM420.125 156.089H421.125V155.089H420.125V156.089ZM420.125 234.778V235.778H421.125V234.778H420.125ZM342.105 234.778H341.105V235.778H342.105V234.778ZM342.105 234.133V233.133H341.105V234.133H342.105ZM420.125 234.133H421.125V233.133H420.125V234.133ZM420.125 312.823V313.823H421.125V312.823H420.125ZM342.105 312.823H341.105V313.823H342.105V312.823ZM342.105 312.178V311.178H341.105V312.178H342.105ZM420.125 312.178H421.125V311.178H420.125V312.178ZM420.125 390.867V391.867H421.125V390.867H420.125ZM342.105 390.867H341.105V391.867H342.105V390.867ZM342.105 390.222V389.222H341.105V390.222H342.105ZM420.125 390.222H421.125V389.222H420.125V390.222ZM420.125 468.911V469.911H421.125V468.911H420.125ZM342.105 468.911H341.105V469.911H342.105V468.911ZM342.105 468.266V467.266H341.105V468.266H342.105ZM420.125 468.266H421.125V467.266H420.125V468.266ZM420.125 546.956V547.956H421.125V546.956H420.125ZM342.105 546.956H341.105V547.956H342.105V546.956ZM342.105 546.311V545.311H341.105V546.311H342.105ZM420.125 546.311H421.125V545.311H420.125V546.311ZM420.125 625V626H421.125V625H420.125ZM342.105 625H341.105V626H342.105V625ZM419.48 0V-1H418.48V0H419.48ZM497.5 0H498.5V-1H497.5V0ZM497.5 78.6894V79.6894H498.5V78.6894H497.5ZM419.48 78.6894H418.48V79.6894H419.48V78.6894ZM419.48 78.0444V77.0444H418.48V78.0444H419.48ZM497.5 78.0444H498.5V77.0444H497.5V78.0444ZM497.5 156.734V157.734H498.5V156.734H497.5ZM419.48 156.734H418.48V157.734H419.48V156.734ZM419.48 156.089V155.089H418.48V156.089H419.48ZM497.5 156.089H498.5V155.089H497.5V156.089ZM497.5 234.778V235.778H498.5V234.778H497.5ZM419.48 234.778H418.48V235.778H419.48V234.778ZM419.48 234.133V233.133H418.48V234.133H419.48ZM497.5 234.133H498.5V233.133H497.5V234.133ZM497.5 312.823V313.823H498.5V312.823H497.5ZM419.48 312.823H418.48V313.823H419.48V312.823ZM419.48 312.178V311.178H418.48V312.178H419.48ZM497.5 312.178H498.5V311.178H497.5V312.178ZM497.5 390.867V391.867H498.5V390.867H497.5ZM419.48 390.867H418.48V391.867H419.48V390.867ZM419.48 390.222V389.222H418.48V390.222H419.48ZM497.5 390.222H498.5V389.222H497.5V390.222ZM497.5 468.911V469.911H498.5V468.911H497.5ZM419.48 468.911H418.48V469.911H419.48V468.911ZM419.48 468.266V467.266H418.48V468.266H419.48ZM497.5 468.266H498.5V467.266H497.5V468.266ZM497.5 546.956V547.956H498.5V546.956H497.5ZM419.48 546.956H418.48V547.956H419.48V546.956ZM419.48 546.311V545.311H418.48V546.311H419.48ZM497.5 546.311H498.5V545.311H497.5V546.311ZM497.5 625V626H498.5V625H497.5ZM419.48 625H418.48V626H419.48V625ZM496.855 0V-1H495.855V0H496.855ZM574.875 0H575.875V-1H574.875V0ZM574.875 78.6894V79.6894H575.875V78.6894H574.875ZM496.855 78.6894H495.855V79.6894H496.855V78.6894ZM496.855 78.0444V77.0444H495.855V78.0444H496.855ZM574.875 78.0444H575.875V77.0444H574.875V78.0444ZM574.875 156.734V157.734H575.875V156.734H574.875ZM496.855 156.734H495.855V157.734H496.855V156.734ZM496.855 156.089V155.089H495.855V156.089H496.855ZM574.875 156.089H575.875V155.089H574.875V156.089ZM574.875 234.778V235.778H575.875V234.778H574.875ZM496.855 234.778H495.855V235.778H496.855V234.778ZM496.855 234.133V233.133H495.855V234.133H496.855ZM574.875 234.133H575.875V233.133H574.875V234.133ZM574.875 312.823V313.823H575.875V312.823H574.875ZM496.855 312.823H495.855V313.823H496.855V312.823ZM496.855 312.178V311.178H495.855V312.178H496.855ZM574.875 312.178H575.875V311.178H574.875V312.178ZM574.875 390.867V391.867H575.875V390.867H574.875ZM496.855 390.867H495.855V391.867H496.855V390.867ZM496.855 390.222V389.222H495.855V390.222H496.855ZM574.875 390.222H575.875V389.222H574.875V390.222ZM574.875 468.911V469.911H575.875V468.911H574.875ZM496.855 468.911H495.855V469.911H496.855V468.911ZM496.855 468.266V467.266H495.855V468.266H496.855ZM574.875 468.266H575.875V467.266H574.875V468.266ZM574.875 546.956V547.956H575.875V546.956H574.875ZM496.855 546.956H495.855V547.956H496.855V546.956ZM496.855 546.311V545.311H495.855V546.311H496.855ZM574.875 546.311H575.875V545.311H574.875V546.311ZM574.875 625V626H575.875V625H574.875ZM496.855 625H495.855V626H496.855V625ZM574.23 0V-1H573.23V0H574.23ZM652.25 0H653.25V-1H652.25V0ZM652.25 78.6894V79.6894H653.25V78.6894H652.25ZM574.23 78.6894H573.23V79.6894H574.23V78.6894ZM574.23 78.0444V77.0444H573.23V78.0444H574.23ZM652.25 78.0444H653.25V77.0444H652.25V78.0444ZM652.25 156.734V157.734H653.25V156.734H652.25ZM574.23 156.734H573.23V157.734H574.23V156.734ZM574.23 156.089V155.089H573.23V156.089H574.23ZM652.25 156.089H653.25V155.089H652.25V156.089ZM652.25 234.778V235.778H653.25V234.778H652.25ZM574.23 234.778H573.23V235.778H574.23V234.778ZM574.23 234.133V233.133H573.23V234.133H574.23ZM652.25 234.133H653.25V233.133H652.25V234.133ZM652.25 312.823V313.823H653.25V312.823H652.25ZM574.23 312.823H573.23V313.823H574.23V312.823ZM574.23 312.178V311.178H573.23V312.178H574.23ZM652.25 312.178H653.25V311.178H652.25V312.178ZM652.25 390.867V391.867H653.25V390.867H652.25ZM574.23 390.867H573.23V391.867H574.23V390.867ZM574.23 390.222V389.222H573.23V390.222H574.23ZM652.25 390.222H653.25V389.222H652.25V390.222ZM652.25 468.911V469.911H653.25V468.911H652.25ZM574.23 468.911H573.23V469.911H574.23V468.911ZM574.23 468.266V467.266H573.23V468.266H574.23ZM652.25 468.266H653.25V467.266H652.25V468.266ZM652.25 546.956V547.956H653.25V546.956H652.25ZM574.23 546.956H573.23V547.956H574.23V546.956ZM574.23 546.311V545.311H573.23V546.311H574.23ZM652.25 546.311H653.25V545.311H652.25V546.311ZM652.25 625V626H653.25V625H652.25ZM574.23 625H573.23V626H574.23V625ZM651.605 0V-1H650.605V0H651.605ZM729.625 0H730.625V-1H729.625V0ZM729.625 78.6894V79.6894H730.625V78.6894H729.625ZM651.605 78.6894H650.605V79.6894H651.605V78.6894ZM651.605 78.0444V77.0444H650.605V78.0444H651.605ZM729.625 78.0444H730.625V77.0444H729.625V78.0444ZM729.625 156.734V157.734H730.625V156.734H729.625ZM651.605 156.734H650.605V157.734H651.605V156.734ZM651.605 156.089V155.089H650.605V156.089H651.605ZM729.625 156.089H730.625V155.089H729.625V156.089ZM729.625 234.778V235.778H730.625V234.778H729.625ZM651.605 234.778H650.605V235.778H651.605V234.778ZM651.605 234.133V233.133H650.605V234.133H651.605ZM729.625 234.133H730.625V233.133H729.625V234.133ZM729.625 312.823V313.823H730.625V312.823H729.625ZM651.605 312.823H650.605V313.823H651.605V312.823ZM651.605 312.178V311.178H650.605V312.178H651.605ZM729.625 312.178H730.625V311.178H729.625V312.178ZM729.625 390.867V391.867H730.625V390.867H729.625ZM651.605 390.867H650.605V391.867H651.605V390.867ZM651.605 390.222V389.222H650.605V390.222H651.605ZM729.625 390.222H730.625V389.222H729.625V390.222ZM729.625 468.911V469.911H730.625V468.911H729.625ZM651.605 468.911H650.605V469.911H651.605V468.911ZM651.605 468.266V467.266H650.605V468.266H651.605ZM729.625 468.266H730.625V467.266H729.625V468.266ZM729.625 546.956V547.956H730.625V546.956H729.625ZM651.605 546.956H650.605V547.956H651.605V546.956ZM651.605 546.311V545.311H650.605V546.311H651.605ZM729.625 546.311H730.625V545.311H729.625V546.311ZM729.625 625V626H730.625V625H729.625ZM651.605 625H650.605V626H651.605V625ZM728.98 0V-1H727.98V0H728.98ZM807 0H808V-1H807V0ZM807 78.6894V79.6894H808V78.6894H807ZM728.98 78.6894H727.98V79.6894H728.98V78.6894ZM728.98 78.0444V77.0444H727.98V78.0444H728.98ZM807 78.0444H808V77.0444H807V78.0444ZM807 156.734V157.734H808V156.734H807ZM728.98 156.734H727.98V157.734H728.98V156.734ZM728.98 156.089V155.089H727.98V156.089H728.98ZM807 156.089H808V155.089H807V156.089ZM807 234.778V235.778H808V234.778H807ZM728.98 234.778H727.98V235.778H728.98V234.778ZM728.98 234.133V233.133H727.98V234.133H728.98ZM807 234.133H808V233.133H807V234.133ZM807 312.823V313.823H808V312.823H807ZM728.98 312.823H727.98V313.823H728.98V312.823ZM728.98 312.178V311.178H727.98V312.178H728.98ZM807 312.178H808V311.178H807V312.178ZM807 390.867V391.867H808V390.867H807ZM728.98 390.867H727.98V391.867H728.98V390.867ZM728.98 390.222V389.222H727.98V390.222H728.98ZM807 390.222H808V389.222H807V390.222ZM807 468.911V469.911H808V468.911H807ZM728.98 468.911H727.98V469.911H728.98V468.911ZM728.98 468.266V467.266H727.98V468.266H728.98ZM807 468.266H808V467.266H807V468.266ZM807 546.956V547.956H808V546.956H807ZM728.98 546.956H727.98V547.956H728.98V546.956ZM728.98 546.311V545.311H727.98V546.311H728.98ZM807 546.311H808V545.311H807V546.311ZM807 625V626H808V625H807ZM728.98 625H727.98V626H728.98V625ZM-431 1H-352.98V-1H-431V1ZM-353.98 0V78.6894H-351.98V0H-353.98ZM-352.98 77.6894H-431V79.6894H-352.98V77.6894ZM-430 78.6894V0H-432V78.6894H-430ZM-431 79.0444H-352.98V77.0444H-431V79.0444ZM-353.98 78.0444V156.734H-351.98V78.0444H-353.98ZM-352.98 155.734H-431V157.734H-352.98V155.734ZM-430 156.734V78.0444H-432V156.734H-430ZM-431 157.089H-352.98V155.089H-431V157.089ZM-353.98 156.089V234.778H-351.98V156.089H-353.98ZM-352.98 233.778H-431V235.778H-352.98V233.778ZM-430 234.778V156.089H-432V234.778H-430ZM-431 235.133H-352.98V233.133H-431V235.133ZM-353.98 234.133V312.823H-351.98V234.133H-353.98ZM-352.98 311.823H-431V313.823H-352.98V311.823ZM-430 312.823V234.133H-432V312.823H-430ZM-431 313.178H-352.98V311.178H-431V313.178ZM-353.98 312.178V390.867H-351.98V312.178H-353.98ZM-352.98 389.867H-431V391.867H-352.98V389.867ZM-430 390.867V312.178H-432V390.867H-430ZM-431 391.222H-352.98V389.222H-431V391.222ZM-353.98 390.222V468.911H-351.98V390.222H-353.98ZM-352.98 467.911H-431V469.911H-352.98V467.911ZM-430 468.911V390.222H-432V468.911H-430ZM-431 469.266H-352.98V467.266H-431V469.266ZM-353.98 468.266V546.956H-351.98V468.266H-353.98ZM-352.98 545.956H-431V547.956H-352.98V545.956ZM-430 546.956V468.266H-432V546.956H-430ZM-431 547.311H-352.98V545.311H-431V547.311ZM-353.98 546.311V625H-351.98V546.311H-353.98ZM-352.98 624H-431V626H-352.98V624ZM-430 625V546.311H-432V625H-430ZM-353.625 1H-275.605V-1H-353.625V1ZM-276.605 0V78.6894H-274.605V0H-276.605ZM-275.605 77.6894H-353.625V79.6894H-275.605V77.6894ZM-352.625 78.6894V0H-354.625V78.6894H-352.625ZM-353.625 79.0444H-275.605V77.0444H-353.625V79.0444ZM-276.605 78.0444V156.734H-274.605V78.0444H-276.605ZM-275.605 155.734H-353.625V157.734H-275.605V155.734ZM-352.625 156.734V78.0444H-354.625V156.734H-352.625ZM-353.625 157.089H-275.605V155.089H-353.625V157.089ZM-276.605 156.089V234.778H-274.605V156.089H-276.605ZM-275.605 233.778H-353.625V235.778H-275.605V233.778ZM-352.625 234.778V156.089H-354.625V234.778H-352.625ZM-353.625 235.133H-275.605V233.133H-353.625V235.133ZM-276.605 234.133V312.823H-274.605V234.133H-276.605ZM-275.605 311.823H-353.625V313.823H-275.605V311.823ZM-352.625 312.823V234.133H-354.625V312.823H-352.625ZM-353.625 313.178H-275.605V311.178H-353.625V313.178ZM-276.605 312.178V390.867H-274.605V312.178H-276.605ZM-275.605 389.867H-353.625V391.867H-275.605V389.867ZM-352.625 390.867V312.178H-354.625V390.867H-352.625ZM-353.625 391.222H-275.605V389.222H-353.625V391.222ZM-276.605 390.222V468.911H-274.605V390.222H-276.605ZM-275.605 467.911H-353.625V469.911H-275.605V467.911ZM-352.625 468.911V390.222H-354.625V468.911H-352.625ZM-353.625 469.266H-275.605V467.266H-353.625V469.266ZM-276.605 468.266V546.956H-274.605V468.266H-276.605ZM-275.605 545.956H-353.625V547.956H-275.605V545.956ZM-352.625 546.956V468.266H-354.625V546.956H-352.625ZM-353.625 547.311H-275.605V545.311H-353.625V547.311ZM-276.605 546.311V625H-274.605V546.311H-276.605ZM-275.605 624H-353.625V626H-275.605V624ZM-352.625 625V546.311H-354.625V625H-352.625ZM-276.25 1H-198.23V-1H-276.25V1ZM-199.23 0V78.6894H-197.23V0H-199.23ZM-198.23 77.6894H-276.25V79.6894H-198.23V77.6894ZM-275.25 78.6894V0H-277.25V78.6894H-275.25ZM-276.25 79.0444H-198.23V77.0444H-276.25V79.0444ZM-199.23 78.0444V156.734H-197.23V78.0444H-199.23ZM-198.23 155.734H-276.25V157.734H-198.23V155.734ZM-275.25 156.734V78.0444H-277.25V156.734H-275.25ZM-276.25 157.089H-198.23V155.089H-276.25V157.089ZM-199.23 156.089V234.778H-197.23V156.089H-199.23ZM-198.23 233.778H-276.25V235.778H-198.23V233.778ZM-275.25 234.778V156.089H-277.25V234.778H-275.25ZM-276.25 235.133H-198.23V233.133H-276.25V235.133ZM-199.23 234.133V312.823H-197.23V234.133H-199.23ZM-198.23 311.823H-276.25V313.823H-198.23V311.823ZM-275.25 312.823V234.133H-277.25V312.823H-275.25ZM-276.25 313.178H-198.23V311.178H-276.25V313.178ZM-199.23 312.178V390.867H-197.23V312.178H-199.23ZM-198.23 389.867H-276.25V391.867H-198.23V389.867ZM-275.25 390.867V312.178H-277.25V390.867H-275.25ZM-276.25 391.222H-198.23V389.222H-276.25V391.222ZM-199.23 390.222V468.911H-197.23V390.222H-199.23ZM-198.23 467.911H-276.25V469.911H-198.23V467.911ZM-275.25 468.911V390.222H-277.25V468.911H-275.25ZM-276.25 469.266H-198.23V467.266H-276.25V469.266ZM-199.23 468.266V546.956H-197.23V468.266H-199.23ZM-198.23 545.956H-276.25V547.956H-198.23V545.956ZM-275.25 546.956V468.266H-277.25V546.956H-275.25ZM-276.25 547.311H-198.23V545.311H-276.25V547.311ZM-199.23 546.311V625H-197.23V546.311H-199.23ZM-198.23 624H-276.25V626H-198.23V624ZM-275.25 625V546.311H-277.25V625H-275.25ZM-198.875 1H-120.855V-1H-198.875V1ZM-121.855 0V78.6894H-119.855V0H-121.855ZM-120.855 77.6894H-198.875V79.6894H-120.855V77.6894ZM-197.875 78.6894V0H-199.875V78.6894H-197.875ZM-198.875 79.0444H-120.855V77.0444H-198.875V79.0444ZM-121.855 78.0444V156.734H-119.855V78.0444H-121.855ZM-120.855 155.734H-198.875V157.734H-120.855V155.734ZM-197.875 156.734V78.0444H-199.875V156.734H-197.875ZM-198.875 157.089H-120.855V155.089H-198.875V157.089ZM-121.855 156.089V234.778H-119.855V156.089H-121.855ZM-120.855 233.778H-198.875V235.778H-120.855V233.778ZM-197.875 234.778V156.089H-199.875V234.778H-197.875ZM-198.875 235.133H-120.855V233.133H-198.875V235.133ZM-121.855 234.133V312.823H-119.855V234.133H-121.855ZM-120.855 311.823H-198.875V313.823H-120.855V311.823ZM-197.875 312.823V234.133H-199.875V312.823H-197.875ZM-198.875 313.178H-120.855V311.178H-198.875V313.178ZM-121.855 312.178V390.867H-119.855V312.178H-121.855ZM-120.855 389.867H-198.875V391.867H-120.855V389.867ZM-197.875 390.867V312.178H-199.875V390.867H-197.875ZM-198.875 391.222H-120.855V389.222H-198.875V391.222ZM-121.855 390.222V468.911H-119.855V390.222H-121.855ZM-120.855 467.911H-198.875V469.911H-120.855V467.911ZM-197.875 468.911V390.222H-199.875V468.911H-197.875ZM-198.875 469.266H-120.855V467.266H-198.875V469.266ZM-121.855 468.266V546.956H-119.855V468.266H-121.855ZM-120.855 545.956H-198.875V547.956H-120.855V545.956ZM-197.875 546.956V468.266H-199.875V546.956H-197.875ZM-198.875 547.311H-120.855V545.311H-198.875V547.311ZM-121.855 546.311V625H-119.855V546.311H-121.855ZM-120.855 624H-198.875V626H-120.855V624ZM-197.875 625V546.311H-199.875V625H-197.875ZM-121.5 1H-43.4802V-1H-121.5V1ZM-44.4802 0V78.6894H-42.4802V0H-44.4802ZM-43.4802 77.6894H-121.5V79.6894H-43.4802V77.6894ZM-120.5 78.6894V0H-122.5V78.6894H-120.5ZM-121.5 79.0444H-43.4802V77.0444H-121.5V79.0444ZM-44.4802 78.0444V156.734H-42.4802V78.0444H-44.4802ZM-43.4802 155.734H-121.5V157.734H-43.4802V155.734ZM-120.5 156.734V78.0444H-122.5V156.734H-120.5ZM-121.5 157.089H-43.4802V155.089H-121.5V157.089ZM-44.4802 156.089V234.778H-42.4802V156.089H-44.4802ZM-43.4802 233.778H-121.5V235.778H-43.4802V233.778ZM-120.5 234.778V156.089H-122.5V234.778H-120.5ZM-121.5 235.133H-43.4802V233.133H-121.5V235.133ZM-44.4802 234.133V312.823H-42.4802V234.133H-44.4802ZM-43.4802 311.823H-121.5V313.823H-43.4802V311.823ZM-120.5 312.823V234.133H-122.5V312.823H-120.5ZM-121.5 313.178H-43.4802V311.178H-121.5V313.178ZM-44.4802 312.178V390.867H-42.4802V312.178H-44.4802ZM-43.4802 389.867H-121.5V391.867H-43.4802V389.867ZM-120.5 390.867V312.178H-122.5V390.867H-120.5ZM-121.5 391.222H-43.4802V389.222H-121.5V391.222ZM-44.4802 390.222V468.911H-42.4802V390.222H-44.4802ZM-43.4802 467.911H-121.5V469.911H-43.4802V467.911ZM-120.5 468.911V390.222H-122.5V468.911H-120.5ZM-121.5 469.266H-43.4802V467.266H-121.5V469.266ZM-44.4802 468.266V546.956H-42.4802V468.266H-44.4802ZM-43.4802 545.956H-121.5V547.956H-43.4802V545.956ZM-120.5 546.956V468.266H-122.5V546.956H-120.5ZM-121.5 547.311H-43.4802V545.311H-121.5V547.311ZM-44.4802 546.311V625H-42.4802V546.311H-44.4802ZM-43.4802 624H-121.5V626H-43.4802V624ZM-120.5 625V546.311H-122.5V625H-120.5ZM-44.125 1H33.8948V-1H-44.125V1ZM32.8948 0V78.6894H34.8948V0H32.8948ZM33.8948 77.6894H-44.125V79.6894H33.8948V77.6894ZM-43.125 78.6894V0H-45.125V78.6894H-43.125ZM-44.125 79.0444H33.8948V77.0444H-44.125V79.0444ZM32.8948 78.0444V156.734H34.8948V78.0444H32.8948ZM33.8948 155.734H-44.125V157.734H33.8948V155.734ZM-43.125 156.734V78.0444H-45.125V156.734H-43.125ZM-44.125 157.089H33.8948V155.089H-44.125V157.089ZM32.8948 156.089V234.778H34.8948V156.089H32.8948ZM33.8948 233.778H-44.125V235.778H33.8948V233.778ZM-43.125 234.778V156.089H-45.125V234.778H-43.125ZM-44.125 235.133H33.8948V233.133H-44.125V235.133ZM32.8948 234.133V312.823H34.8948V234.133H32.8948ZM33.8948 311.823H-44.125V313.823H33.8948V311.823ZM-43.125 312.823V234.133H-45.125V312.823H-43.125ZM-44.125 313.178H33.8948V311.178H-44.125V313.178ZM32.8948 312.178V390.867H34.8948V312.178H32.8948ZM33.8948 389.867H-44.125V391.867H33.8948V389.867ZM-43.125 390.867V312.178H-45.125V390.867H-43.125ZM-44.125 391.222H33.8948V389.222H-44.125V391.222ZM32.8948 390.222V468.911H34.8948V390.222H32.8948ZM33.8948 467.911H-44.125V469.911H33.8948V467.911ZM-43.125 468.911V390.222H-45.125V468.911H-43.125ZM-44.125 469.266H33.8948V467.266H-44.125V469.266ZM32.8948 468.266V546.956H34.8948V468.266H32.8948ZM33.8948 545.956H-44.125V547.956H33.8948V545.956ZM-43.125 546.956V468.266H-45.125V546.956H-43.125ZM-44.125 547.311H33.8948V545.311H-44.125V547.311ZM32.8948 546.311V625H34.8948V546.311H32.8948ZM33.8948 624H-44.125V626H33.8948V624ZM-43.125 625V546.311H-45.125V625H-43.125ZM33.25 1H111.27V-1H33.25V1ZM110.27 0V78.6894H112.27V0H110.27ZM111.27 77.6894H33.25V79.6894H111.27V77.6894ZM34.25 78.6894V0H32.25V78.6894H34.25ZM33.25 79.0444H111.27V77.0444H33.25V79.0444ZM110.27 78.0444V156.734H112.27V78.0444H110.27ZM111.27 155.734H33.25V157.734H111.27V155.734ZM34.25 156.734V78.0444H32.25V156.734H34.25ZM33.25 157.089H111.27V155.089H33.25V157.089ZM110.27 156.089V234.778H112.27V156.089H110.27ZM111.27 233.778H33.25V235.778H111.27V233.778ZM34.25 234.778V156.089H32.25V234.778H34.25ZM33.25 235.133H111.27V233.133H33.25V235.133ZM110.27 234.133V312.823H112.27V234.133H110.27ZM111.27 311.823H33.25V313.823H111.27V311.823ZM34.25 312.823V234.133H32.25V312.823H34.25ZM33.25 313.178H111.27V311.178H33.25V313.178ZM110.27 312.178V390.867H112.27V312.178H110.27ZM111.27 389.867H33.25V391.867H111.27V389.867ZM34.25 390.867V312.178H32.25V390.867H34.25ZM33.25 391.222H111.27V389.222H33.25V391.222ZM110.27 390.222V468.911H112.27V390.222H110.27ZM111.27 467.911H33.25V469.911H111.27V467.911ZM34.25 468.911V390.222H32.25V468.911H34.25ZM33.25 469.266H111.27V467.266H33.25V469.266ZM110.27 468.266V546.956H112.27V468.266H110.27ZM111.27 545.956H33.25V547.956H111.27V545.956ZM34.25 546.956V468.266H32.25V546.956H34.25ZM33.25 547.311H111.27V545.311H33.25V547.311ZM110.27 546.311V625H112.27V546.311H110.27ZM111.27 624H33.25V626H111.27V624ZM34.25 625V546.311H32.25V625H34.25ZM110.625 1H189.29V-1H110.625V1ZM188.29 0V78.6894H190.29V0H188.29ZM189.29 77.6894H110.625V79.6894H189.29V77.6894ZM111.625 78.6894V0H109.625V78.6894H111.625ZM110.625 79.0444H189.29V77.0444H110.625V79.0444ZM188.29 78.0444V156.734H190.29V78.0444H188.29ZM189.29 155.734H110.625V157.734H189.29V155.734ZM111.625 156.734V78.0444H109.625V156.734H111.625ZM110.625 157.089H189.29V155.089H110.625V157.089ZM188.29 156.089V234.778H190.29V156.089H188.29ZM189.29 233.778H110.625V235.778H189.29V233.778ZM111.625 234.778V156.089H109.625V234.778H111.625ZM110.625 235.133H189.29V233.133H110.625V235.133ZM188.29 234.133V312.823H190.29V234.133H188.29ZM189.29 311.823H110.625V313.823H189.29V311.823ZM111.625 312.823V234.133H109.625V312.823H111.625ZM110.625 313.178H189.29V311.178H110.625V313.178ZM188.29 312.178V390.867H190.29V312.178H188.29ZM189.29 389.867H110.625V391.867H189.29V389.867ZM111.625 390.867V312.178H109.625V390.867H111.625ZM110.625 391.222H189.29V389.222H110.625V391.222ZM188.29 390.222V468.911H190.29V390.222H188.29ZM189.29 467.911H110.625V469.911H189.29V467.911ZM111.625 468.911V390.222H109.625V468.911H111.625ZM110.625 469.266H189.29V467.266H110.625V469.266ZM188.29 468.266V546.956H190.29V468.266H188.29ZM189.29 545.956H110.625V547.956H189.29V545.956ZM111.625 546.956V468.266H109.625V546.956H111.625ZM110.625 547.311H189.29V545.311H110.625V547.311ZM188.29 546.311V625H190.29V546.311H188.29ZM189.29 624H110.625V626H189.29V624ZM111.625 625V546.311H109.625V625H111.625ZM188.645 1H265.375V-1H188.645V1ZM264.375 0V78.6894H266.375V0H264.375ZM265.375 77.6894H188.645V79.6894H265.375V77.6894ZM189.645 78.6894V0H187.645V78.6894H189.645ZM188.645 79.0444H265.375V77.0444H188.645V79.0444ZM264.375 78.0444V156.734H266.375V78.0444H264.375ZM265.375 155.734H188.645V157.734H265.375V155.734ZM189.645 156.734V78.0444H187.645V156.734H189.645ZM188.645 157.089H265.375V155.089H188.645V157.089ZM264.375 156.089V234.778H266.375V156.089H264.375ZM265.375 233.778H188.645V235.778H265.375V233.778ZM189.645 234.778V156.089H187.645V234.778H189.645ZM188.645 235.133H265.375V233.133H188.645V235.133ZM264.375 234.133V312.823H266.375V234.133H264.375ZM265.375 311.823H188.645V313.823H265.375V311.823ZM189.645 312.823V234.133H187.645V312.823H189.645ZM188.645 313.178H265.375V311.178H188.645V313.178ZM264.375 312.178V390.867H266.375V312.178H264.375ZM265.375 389.867H188.645V391.867H265.375V389.867ZM189.645 390.867V312.178H187.645V390.867H189.645ZM188.645 391.222H265.375V389.222H188.645V391.222ZM264.375 390.222V468.911H266.375V390.222H264.375ZM265.375 467.911H188.645V469.911H265.375V467.911ZM189.645 468.911V390.222H187.645V468.911H189.645ZM188.645 469.266H265.375V467.266H188.645V469.266ZM264.375 468.266V546.956H266.375V468.266H264.375ZM265.375 545.956H188.645V547.956H265.375V545.956ZM189.645 546.956V468.266H187.645V546.956H189.645ZM188.645 547.311H265.375V545.311H188.645V547.311ZM264.375 546.311V625H266.375V546.311H264.375ZM265.375 624H188.645V626H265.375V624ZM189.645 625V546.311H187.645V625H189.645ZM264.73 1H342.75V-1H264.73V1ZM341.75 0V78.6894H343.75V0H341.75ZM342.75 77.6894H264.73V79.6894H342.75V77.6894ZM265.73 78.6894V0H263.73V78.6894H265.73ZM264.73 79.0444H342.75V77.0444H264.73V79.0444ZM341.75 78.0444V156.734H343.75V78.0444H341.75ZM342.75 155.734H264.73V157.734H342.75V155.734ZM265.73 156.734V78.0444H263.73V156.734H265.73ZM264.73 157.089H342.75V155.089H264.73V157.089ZM341.75 156.089V234.778H343.75V156.089H341.75ZM342.75 233.778H264.73V235.778H342.75V233.778ZM265.73 234.778V156.089H263.73V234.778H265.73ZM264.73 235.133H342.75V233.133H264.73V235.133ZM341.75 234.133V312.823H343.75V234.133H341.75ZM342.75 311.823H264.73V313.823H342.75V311.823ZM265.73 312.823V234.133H263.73V312.823H265.73ZM264.73 313.178H342.75V311.178H264.73V313.178ZM341.75 312.178V390.867H343.75V312.178H341.75ZM342.75 389.867H264.73V391.867H342.75V389.867ZM265.73 390.867V312.178H263.73V390.867H265.73ZM264.73 391.222H342.75V389.222H264.73V391.222ZM341.75 390.222V468.911H343.75V390.222H341.75ZM342.75 467.911H264.73V469.911H342.75V467.911ZM265.73 468.911V390.222H263.73V468.911H265.73ZM264.73 469.266H342.75V467.266H264.73V469.266ZM341.75 468.266V546.956H343.75V468.266H341.75ZM342.75 545.956H264.73V547.956H342.75V545.956ZM265.73 546.956V468.266H263.73V546.956H265.73ZM264.73 547.311H342.75V545.311H264.73V547.311ZM341.75 546.311V625H343.75V546.311H341.75ZM342.75 624H264.73V626H342.75V624ZM265.73 625V546.311H263.73V625H265.73ZM342.105 1H420.125V-1H342.105V1ZM419.125 0V78.6894H421.125V0H419.125ZM420.125 77.6894H342.105V79.6894H420.125V77.6894ZM343.105 78.6894V0H341.105V78.6894H343.105ZM342.105 79.0444H420.125V77.0444H342.105V79.0444ZM419.125 78.0444V156.734H421.125V78.0444H419.125ZM420.125 155.734H342.105V157.734H420.125V155.734ZM343.105 156.734V78.0444H341.105V156.734H343.105ZM342.105 157.089H420.125V155.089H342.105V157.089ZM419.125 156.089V234.778H421.125V156.089H419.125ZM420.125 233.778H342.105V235.778H420.125V233.778ZM343.105 234.778V156.089H341.105V234.778H343.105ZM342.105 235.133H420.125V233.133H342.105V235.133ZM419.125 234.133V312.823H421.125V234.133H419.125ZM420.125 311.823H342.105V313.823H420.125V311.823ZM343.105 312.823V234.133H341.105V312.823H343.105ZM342.105 313.178H420.125V311.178H342.105V313.178ZM419.125 312.178V390.867H421.125V312.178H419.125ZM420.125 389.867H342.105V391.867H420.125V389.867ZM343.105 390.867V312.178H341.105V390.867H343.105ZM342.105 391.222H420.125V389.222H342.105V391.222ZM419.125 390.222V468.911H421.125V390.222H419.125ZM420.125 467.911H342.105V469.911H420.125V467.911ZM343.105 468.911V390.222H341.105V468.911H343.105ZM342.105 469.266H420.125V467.266H342.105V469.266ZM419.125 468.266V546.956H421.125V468.266H419.125ZM420.125 545.956H342.105V547.956H420.125V545.956ZM343.105 546.956V468.266H341.105V546.956H343.105ZM342.105 547.311H420.125V545.311H342.105V547.311ZM419.125 546.311V625H421.125V546.311H419.125ZM420.125 624H342.105V626H420.125V624ZM343.105 625V546.311H341.105V625H343.105ZM419.48 1H497.5V-1H419.48V1ZM496.5 0V78.6894H498.5V0H496.5ZM497.5 77.6894H419.48V79.6894H497.5V77.6894ZM420.48 78.6894V0H418.48V78.6894H420.48ZM419.48 79.0444H497.5V77.0444H419.48V79.0444ZM496.5 78.0444V156.734H498.5V78.0444H496.5ZM497.5 155.734H419.48V157.734H497.5V155.734ZM420.48 156.734V78.0444H418.48V156.734H420.48ZM419.48 157.089H497.5V155.089H419.48V157.089ZM496.5 156.089V234.778H498.5V156.089H496.5ZM497.5 233.778H419.48V235.778H497.5V233.778ZM420.48 234.778V156.089H418.48V234.778H420.48ZM419.48 235.133H497.5V233.133H419.48V235.133ZM496.5 234.133V312.823H498.5V234.133H496.5ZM497.5 311.823H419.48V313.823H497.5V311.823ZM420.48 312.823V234.133H418.48V312.823H420.48ZM419.48 313.178H497.5V311.178H419.48V313.178ZM496.5 312.178V390.867H498.5V312.178H496.5ZM497.5 389.867H419.48V391.867H497.5V389.867ZM420.48 390.867V312.178H418.48V390.867H420.48ZM419.48 391.222H497.5V389.222H419.48V391.222ZM496.5 390.222V468.911H498.5V390.222H496.5ZM497.5 467.911H419.48V469.911H497.5V467.911ZM420.48 468.911V390.222H418.48V468.911H420.48ZM419.48 469.266H497.5V467.266H419.48V469.266ZM496.5 468.266V546.956H498.5V468.266H496.5ZM497.5 545.956H419.48V547.956H497.5V545.956ZM420.48 546.956V468.266H418.48V546.956H420.48ZM419.48 547.311H497.5V545.311H419.48V547.311ZM496.5 546.311V625H498.5V546.311H496.5ZM497.5 624H419.48V626H497.5V624ZM420.48 625V546.311H418.48V625H420.48ZM496.855 1H574.875V-1H496.855V1ZM573.875 0V78.6894H575.875V0H573.875ZM574.875 77.6894H496.855V79.6894H574.875V77.6894ZM497.855 78.6894V0H495.855V78.6894H497.855ZM496.855 79.0444H574.875V77.0444H496.855V79.0444ZM573.875 78.0444V156.734H575.875V78.0444H573.875ZM574.875 155.734H496.855V157.734H574.875V155.734ZM497.855 156.734V78.0444H495.855V156.734H497.855ZM496.855 157.089H574.875V155.089H496.855V157.089ZM573.875 156.089V234.778H575.875V156.089H573.875ZM574.875 233.778H496.855V235.778H574.875V233.778ZM497.855 234.778V156.089H495.855V234.778H497.855ZM496.855 235.133H574.875V233.133H496.855V235.133ZM573.875 234.133V312.823H575.875V234.133H573.875ZM574.875 311.823H496.855V313.823H574.875V311.823ZM497.855 312.823V234.133H495.855V312.823H497.855ZM496.855 313.178H574.875V311.178H496.855V313.178ZM573.875 312.178V390.867H575.875V312.178H573.875ZM574.875 389.867H496.855V391.867H574.875V389.867ZM497.855 390.867V312.178H495.855V390.867H497.855ZM496.855 391.222H574.875V389.222H496.855V391.222ZM573.875 390.222V468.911H575.875V390.222H573.875ZM574.875 467.911H496.855V469.911H574.875V467.911ZM497.855 468.911V390.222H495.855V468.911H497.855ZM496.855 469.266H574.875V467.266H496.855V469.266ZM573.875 468.266V546.956H575.875V468.266H573.875ZM574.875 545.956H496.855V547.956H574.875V545.956ZM497.855 546.956V468.266H495.855V546.956H497.855ZM496.855 547.311H574.875V545.311H496.855V547.311ZM573.875 546.311V625H575.875V546.311H573.875ZM574.875 624H496.855V626H574.875V624ZM497.855 625V546.311H495.855V625H497.855ZM574.23 1H652.25V-1H574.23V1ZM651.25 0V78.6894H653.25V0H651.25ZM652.25 77.6894H574.23V79.6894H652.25V77.6894ZM575.23 78.6894V0H573.23V78.6894H575.23ZM574.23 79.0444H652.25V77.0444H574.23V79.0444ZM651.25 78.0444V156.734H653.25V78.0444H651.25ZM652.25 155.734H574.23V157.734H652.25V155.734ZM575.23 156.734V78.0444H573.23V156.734H575.23ZM574.23 157.089H652.25V155.089H574.23V157.089ZM651.25 156.089V234.778H653.25V156.089H651.25ZM652.25 233.778H574.23V235.778H652.25V233.778ZM575.23 234.778V156.089H573.23V234.778H575.23ZM574.23 235.133H652.25V233.133H574.23V235.133ZM651.25 234.133V312.823H653.25V234.133H651.25ZM652.25 311.823H574.23V313.823H652.25V311.823ZM575.23 312.823V234.133H573.23V312.823H575.23ZM574.23 313.178H652.25V311.178H574.23V313.178ZM651.25 312.178V390.867H653.25V312.178H651.25ZM652.25 389.867H574.23V391.867H652.25V389.867ZM575.23 390.867V312.178H573.23V390.867H575.23ZM574.23 391.222H652.25V389.222H574.23V391.222ZM651.25 390.222V468.911H653.25V390.222H651.25ZM652.25 467.911H574.23V469.911H652.25V467.911ZM575.23 468.911V390.222H573.23V468.911H575.23ZM574.23 469.266H652.25V467.266H574.23V469.266ZM651.25 468.266V546.956H653.25V468.266H651.25ZM652.25 545.956H574.23V547.956H652.25V545.956ZM575.23 546.956V468.266H573.23V546.956H575.23ZM574.23 547.311H652.25V545.311H574.23V547.311ZM651.25 546.311V625H653.25V546.311H651.25ZM652.25 624H574.23V626H652.25V624ZM575.23 625V546.311H573.23V625H575.23ZM651.605 1H729.625V-1H651.605V1ZM728.625 0V78.6894H730.625V0H728.625ZM729.625 77.6894H651.605V79.6894H729.625V77.6894ZM652.605 78.6894V0H650.605V78.6894H652.605ZM651.605 79.0444H729.625V77.0444H651.605V79.0444ZM728.625 78.0444V156.734H730.625V78.0444H728.625ZM729.625 155.734H651.605V157.734H729.625V155.734ZM652.605 156.734V78.0444H650.605V156.734H652.605ZM651.605 157.089H729.625V155.089H651.605V157.089ZM728.625 156.089V234.778H730.625V156.089H728.625ZM729.625 233.778H651.605V235.778H729.625V233.778ZM652.605 234.778V156.089H650.605V234.778H652.605ZM651.605 235.133H729.625V233.133H651.605V235.133ZM728.625 234.133V312.823H730.625V234.133H728.625ZM729.625 311.823H651.605V313.823H729.625V311.823ZM652.605 312.823V234.133H650.605V312.823H652.605ZM651.605 313.178H729.625V311.178H651.605V313.178ZM728.625 312.178V390.867H730.625V312.178H728.625ZM729.625 389.867H651.605V391.867H729.625V389.867ZM652.605 390.867V312.178H650.605V390.867H652.605ZM651.605 391.222H729.625V389.222H651.605V391.222ZM728.625 390.222V468.911H730.625V390.222H728.625ZM729.625 467.911H651.605V469.911H729.625V467.911ZM652.605 468.911V390.222H650.605V468.911H652.605ZM651.605 469.266H729.625V467.266H651.605V469.266ZM728.625 468.266V546.956H730.625V468.266H728.625ZM729.625 545.956H651.605V547.956H729.625V545.956ZM652.605 546.956V468.266H650.605V546.956H652.605ZM651.605 547.311H729.625V545.311H651.605V547.311ZM728.625 546.311V625H730.625V546.311H728.625ZM729.625 624H651.605V626H729.625V624ZM652.605 625V546.311H650.605V625H652.605ZM728.98 1H807V-1H728.98V1ZM806 0V78.6894H808V0H806ZM807 77.6894H728.98V79.6894H807V77.6894ZM729.98 78.6894V0H727.98V78.6894H729.98ZM728.98 79.0444H807V77.0444H728.98V79.0444ZM806 78.0444V156.734H808V78.0444H806ZM807 155.734H728.98V157.734H807V155.734ZM729.98 156.734V78.0444H727.98V156.734H729.98ZM728.98 157.089H807V155.089H728.98V157.089ZM806 156.089V234.778H808V156.089H806ZM807 233.778H728.98V235.778H807V233.778ZM729.98 234.778V156.089H727.98V234.778H729.98ZM728.98 235.133H807V233.133H728.98V235.133ZM806 234.133V312.823H808V234.133H806ZM807 311.823H728.98V313.823H807V311.823ZM729.98 312.823V234.133H727.98V312.823H729.98ZM728.98 313.178H807V311.178H728.98V313.178ZM806 312.178V390.867H808V312.178H806ZM807 389.867H728.98V391.867H807V389.867ZM729.98 390.867V312.178H727.98V390.867H729.98ZM728.98 391.222H807V389.222H728.98V391.222ZM806 390.222V468.911H808V390.222H806ZM807 467.911H728.98V469.911H807V467.911ZM729.98 468.911V390.222H727.98V468.911H729.98ZM728.98 469.266H807V467.266H728.98V469.266ZM806 468.266V546.956H808V468.266H806ZM807 545.956H728.98V547.956H807V545.956ZM729.98 546.956V468.266H727.98V546.956H729.98ZM728.98 547.311H807V545.311H728.98V547.311ZM806 546.311V625H808V546.311H806ZM807 624H728.98V626H807V624ZM729.98 625V546.311H727.98V625H729.98Z" fill="url(#paint0_linear_987_14770)" mask="url(#path-1-inside-1_987_14770)"/>
<defs>
<linearGradient id="paint0_linear_987_14770" x1="188" y1="42" x2="188" y2="630.5" gradientUnits="userSpaceOnUse">
<stop stop-color="white" stop-opacity="0"/>
<stop offset="0.53675" stop-color="white" stop-opacity="0.11"/>
<stop offset="1" stop-color="white" stop-opacity="0"/>
</linearGradient>
</defs>
</svg>
