<svg width="24" height="24" viewBox="0 0 24 24" fill="none" xmlns="http://www.w3.org/2000/svg">
<path d="M2.76505 2.76505C3.78511 1.74498 5.43897 1.74498 6.45903 2.76505L21.235 17.541C22.255 18.561 22.255 20.2149 21.235 21.235C20.2149 22.255 18.561 22.255 17.541 21.235L2.76505 6.45903C1.74499 5.43897 1.74498 3.78511 2.76505 2.76505Z" fill="red"/>
<path d="M21.235 2.76505C22.255 3.78511 22.255 5.43896 21.235 6.45903L6.45903 21.235C5.43896 22.255 3.78511 22.255 2.76505 21.235C1.74498 20.2149 1.74498 18.561 2.76505 17.541L17.541 2.76505C18.561 1.74498 20.2149 1.74498 21.235 2.76505Z" fill="red"/>
</svg>
