<svg width="978" height="1084" viewBox="0 0 978 1084" fill="none" xmlns="http://www.w3.org/2000/svg">
<path fill-rule="evenodd" clip-rule="evenodd" d="M512.509 1001.39C434.347 1000.6 356.108 996.308 277.031 991.966C241.536 990.018 205.873 988.059 169.972 986.405C94.6363 982.933 88.8533 982.603 83.0678 982.325C78.843 982.122 74.6169 981.947 43.3032 980.596C21.5083 979.655 3.07752 996.561 2.13702 1018.36C1.19653 1040.15 18.1024 1058.58 39.8974 1059.52C71.2944 1060.88 75.2874 1061.04 79.2791 1061.23C84.7524 1061.5 90.2231 1061.81 166.336 1065.32C200.687 1066.9 235.404 1068.81 270.358 1070.73C367.371 1076.06 466.207 1081.49 564.098 1080.38C568.389 1080.33 572.208 1080.57 576.384 1080.87C576.639 1080.89 576.943 1080.91 577.291 1080.94C580.446 1081.18 587.184 1081.7 593.119 1081.16C599.42 1080.57 622.965 1076.93 631.505 1051.93C634.653 1042.71 633.998 1034.53 633.31 1029.96C632.579 1025.1 631.241 1020.79 630.113 1017.59C623.01 997.436 608.668 982.583 600.783 974.522C575.041 948.205 545.914 926.869 518.453 907.77C512.204 903.423 506.088 899.222 500.094 895.105C478.887 880.536 459.221 867.027 440.658 851.904C414.25 830.39 388.639 808.671 364.348 785.934C357.876 779.876 328.601 751.134 298.934 720.422C291.553 712.782 284.228 705.102 277.289 697.691C299.14 702.356 320.914 707.824 343.495 713.495L345.507 714.001C368.739 719.834 392.821 725.855 417.27 730.931C512.1 750.619 595.037 766.192 694.373 768.4C746.896 769.567 801.219 762.574 852.409 737.423C857.143 735.097 864.517 730.401 870.226 726.409C873.391 724.195 877.042 721.506 880.42 718.664L880.463 718.628C882.658 716.781 888.976 711.466 893.447 704.028C909.761 676.891 899.461 648.066 893.897 635.275C888.097 621.944 879.842 609.42 875.705 603.144C875.147 602.298 874.664 601.565 874.272 600.959C826.229 526.711 755.257 484.483 686.014 450.08C620.4 417.48 552.875 389.492 485.464 363.708C468.064 357.053 451.159 350.901 434.61 344.879C401.837 332.951 370.458 321.532 339.384 307.716C365.734 308.094 393.473 310.865 421.752 313.781C477.956 319.578 533.628 330.725 591.358 342.424L595.311 343.226C651.212 354.558 709.125 366.297 768.143 372.802C808.706 377.273 850.917 377.66 893.114 370.458C893.249 370.435 893.472 370.401 893.774 370.354C896.523 369.931 905.809 368.503 914.23 365.505C921.186 363.029 945.529 353.362 950.567 325.654C953.822 307.751 947.276 294.896 944.31 289.176C935.557 272.295 920.926 256.289 911.948 246.467C910.199 244.555 908.666 242.877 907.431 241.472C897.926 230.659 888.641 220.524 879.701 210.767C850.761 179.181 825.446 151.551 808.054 117.662C802.154 106.165 799.771 97.6058 799.698 92.3537C799.668 90.2319 800.034 89.4913 800.075 89.4049C800.119 89.3122 800.231 89.0953 800.544 88.7296C800.867 88.3512 801.536 87.6614 802.795 86.7552C807.651 83.2615 817.378 81.4183 838.529 81.8203C858.901 82.2073 877.311 84.9896 898.422 88.1801C908.642 89.7244 919.494 91.3644 931.508 92.8748C953.153 95.5958 972.905 80.255 975.626 58.6102C978.347 36.9653 963.006 17.2126 941.362 14.4916C933.513 13.5049 924.951 12.2183 915.913 10.8602C892.44 7.33289 865.759 3.32336 840.03 2.83447L839.977 2.83337C821.542 2.48315 785.603 1.80035 756.655 22.63C730.641 41.3478 720.343 67.5726 720.706 93.4598C721.031 116.715 729.792 138.188 737.769 153.732C760.531 198.084 795.611 236.222 825.782 269.022C833.656 277.582 841.196 285.779 848.095 293.628C848.849 294.486 849.586 295.32 850.307 296.132C826.314 297.873 801.731 297.026 776.797 294.278C721.368 288.168 666.482 277.044 609.523 265.5L607.049 264.998C549.811 253.399 490.471 241.449 429.856 235.198L427.863 234.993C384.168 230.484 330.257 224.92 279.988 232.249L279.63 232.301C274.003 233.12 264.58 234.491 255.339 238.562C244.183 243.476 236.161 250.811 229.734 258.93C223.131 267.27 218.157 277.696 217.07 289.83C215.991 301.87 219.02 312.436 223.233 320.718C230.92 335.832 243.919 346.12 252.824 352.232C268.826 363.215 289.183 371.939 296.561 375.101C297.665 375.574 298.479 375.923 298.944 376.136C335.445 392.864 374.227 406.989 411.139 420.433C426.959 426.195 442.435 431.832 457.242 437.495C523.383 462.793 588.354 489.772 650.863 520.829C717.484 553.929 772.017 588.35 807.946 643.876C808.648 644.961 809.348 646.034 810.042 647.098C813.965 653.113 817.69 658.823 820.483 664.662C820.011 664.965 819.556 665.253 819.125 665.522C818.274 666.053 817.613 666.45 817.178 666.702C817.141 666.724 817.107 666.744 817.076 666.762C780.979 684.372 740.504 690.406 696.128 689.419C604.451 687.382 527.465 673.124 433.329 653.58C410.711 648.885 388.148 643.255 364.747 637.379L362.23 636.747C339.855 631.127 316.677 625.306 293.217 620.311C288.113 619.225 282.737 617.79 276.337 616.031C275.661 615.845 274.971 615.655 274.267 615.461C268.653 613.913 262.197 612.134 255.708 610.606C241.112 607.169 222.561 604.009 202.435 606.919C186.608 609.208 176.038 618.801 170.236 627.573C164.842 635.729 162.67 644.185 161.761 650.369C160.098 661.696 161.102 677.02 168.609 690.273C174.845 701.284 187.219 715.912 198.88 729.024C211.591 743.317 226.993 759.655 242.114 775.309C272.251 806.506 302.542 836.29 310.362 843.61C336.489 868.065 363.629 891.049 390.762 913.152C412.088 930.526 435.255 946.429 456.845 961.25C462.472 965.113 467.993 968.903 473.345 972.626C487.201 982.263 500.296 991.683 512.509 1001.39ZM555.717 1044.18C555.718 1044.19 555.707 1044.15 555.682 1044.07C555.703 1044.15 555.716 1044.18 555.717 1044.18ZM874.571 326.332C874.579 326.346 874.559 326.3 874.503 326.186C874.541 326.271 874.565 326.32 874.571 326.332Z" fill="#6D89FF" stroke="#6D89FF" stroke-width="4" stroke-linecap="round"/>
</svg>
