<svg width="978" height="1084" viewBox="0 0 978 1084" fill="none" xmlns="http://www.w3.org/2000/svg">
<path fill-rule="evenodd" clip-rule="evenodd" d="M512.408 82.6516C434.247 83.4418 356.007 87.7377 276.93 92.0795C241.436 94.0284 205.772 95.9865 169.872 97.6411C94.5357 101.113 88.7527 101.443 82.9673 101.721C78.7424 101.924 74.5163 102.099 43.2026 103.45C21.4077 104.391 2.97693 87.4849 2.03644 65.6899C1.09594 43.895 18.0018 25.4642 39.7968 24.5237C71.1938 23.1689 75.1868 23.0043 79.1785 22.812C84.6518 22.5483 90.1226 22.2326 166.235 18.7248C200.586 17.1417 235.304 15.235 270.257 13.3154C367.271 7.98742 466.106 2.55939 563.998 3.67065C568.289 3.71936 572.108 3.47625 576.283 3.17526C576.538 3.1569 576.842 3.13336 577.19 3.10646C580.345 2.86234 587.084 2.3409 593.018 2.88968C599.32 3.47244 622.864 7.11152 631.404 32.1155C634.552 41.331 633.898 49.513 633.209 54.0879C632.478 58.9451 631.14 63.2576 630.013 66.4556C622.909 86.6095 608.567 101.463 600.682 109.524C574.941 135.841 545.814 157.176 518.353 176.276C512.103 180.623 505.987 184.824 499.994 188.941C478.786 203.51 459.121 217.019 440.557 232.142C414.149 253.656 388.538 275.375 364.247 298.112C357.775 304.17 328.501 332.912 298.833 363.624C291.453 371.264 284.128 378.944 277.188 386.355C299.04 381.69 320.813 376.222 343.395 370.551L345.406 370.045C368.639 364.212 392.721 358.191 417.169 353.115C511.999 333.427 594.937 317.853 694.273 315.646C746.795 314.479 801.119 321.471 852.308 346.623C857.042 348.949 864.416 353.645 870.125 357.637C873.291 359.851 876.942 362.54 880.32 365.382L880.362 365.418C882.557 367.265 888.875 372.58 893.347 380.018C909.66 407.155 899.361 435.98 893.796 448.771C887.997 462.102 879.741 474.626 875.605 480.902C875.047 481.748 874.564 482.481 874.172 483.086C826.129 557.335 755.157 599.563 685.914 633.966C620.3 666.566 552.774 694.554 485.363 720.338C467.963 726.993 451.059 733.145 434.51 739.167C401.736 751.095 370.358 762.514 339.283 776.33C365.633 775.952 393.372 773.181 421.651 770.264C477.856 764.468 533.527 753.321 591.257 741.622L595.21 740.82C651.112 729.488 709.024 717.749 768.042 711.244C808.605 706.773 850.816 706.386 893.014 713.588C893.148 713.611 893.371 713.645 893.674 713.692C896.423 714.115 905.708 715.543 914.129 718.54C921.086 721.017 945.429 730.684 950.467 758.392C953.722 776.295 947.175 789.15 944.21 794.87C935.457 811.751 920.825 827.757 911.847 837.579C910.099 839.491 908.565 841.169 907.331 842.574C897.826 853.387 888.54 863.522 879.6 873.279C850.661 904.865 825.345 932.495 807.953 966.384C802.053 977.881 799.671 986.44 799.597 991.692C799.567 993.814 799.933 994.555 799.975 994.641C800.019 994.734 800.131 994.951 800.443 995.316C800.766 995.695 801.435 996.384 802.695 997.291C807.55 1000.78 817.277 1002.63 838.429 1002.23C858.8 1001.84 877.21 999.056 898.322 995.866C908.541 994.321 919.393 992.681 931.407 991.171C953.052 988.45 972.805 1003.79 975.526 1025.44C978.247 1047.08 962.906 1066.83 941.261 1069.55C933.412 1070.54 924.85 1071.83 915.813 1073.19C892.34 1076.71 865.658 1080.72 839.93 1081.21L839.877 1081.21C821.442 1081.56 785.503 1082.25 756.554 1061.42C730.541 1042.7 720.242 1016.47 720.605 990.586C720.931 967.331 729.692 945.858 737.669 930.314C760.43 885.961 795.511 847.824 825.681 815.024C833.556 806.464 841.096 798.267 847.995 790.418C848.749 789.56 849.486 788.726 850.206 787.914C826.213 786.173 801.63 787.02 776.697 789.768C721.267 795.878 666.382 807.002 609.423 818.546L606.948 819.048C549.711 830.647 490.37 842.597 429.755 848.848L427.762 849.053C384.067 853.562 330.156 859.125 279.888 851.797L279.529 851.745C273.903 850.926 264.479 849.555 255.239 845.484C244.083 840.57 236.061 833.235 229.633 825.115C223.031 816.776 218.056 806.35 216.969 794.216C215.89 782.176 218.92 771.61 223.132 763.328C230.819 748.214 243.818 737.926 252.723 731.814C268.725 720.831 289.082 712.107 296.46 708.945C297.565 708.472 298.378 708.123 298.843 707.91C335.345 691.182 374.126 677.057 411.038 663.613C426.858 657.851 442.335 652.214 457.141 646.551C523.282 621.253 588.254 594.274 650.762 563.217C717.383 530.117 771.917 495.696 807.846 440.17C808.548 439.085 809.248 438.012 809.941 436.948C813.864 430.933 817.589 425.223 820.382 419.384C819.91 419.081 819.455 418.793 819.024 418.524C818.174 417.993 817.513 417.596 817.078 417.344C817.04 417.322 817.006 417.302 816.975 417.284C780.879 399.674 740.403 393.64 696.028 394.626C604.35 396.664 527.364 410.922 433.228 430.465C410.611 435.161 388.047 440.79 364.646 446.667L362.129 447.299C339.754 452.919 316.576 458.74 293.117 463.735C288.012 464.821 282.636 466.256 276.236 468.015C275.561 468.201 274.87 468.391 274.166 468.585C268.553 470.133 262.096 471.912 255.607 473.44C241.012 476.877 222.46 480.037 202.334 477.127C186.507 474.838 175.938 465.245 170.136 456.473C164.741 448.317 162.569 439.861 161.661 433.677C159.997 422.35 161.002 407.026 168.508 393.773C174.745 382.762 187.119 368.134 198.78 355.022C211.491 340.729 226.892 324.391 242.014 308.737C272.15 277.539 302.441 247.756 310.261 240.436C336.388 215.981 363.528 192.997 390.661 170.894C411.987 153.52 435.155 137.617 456.744 122.796C462.372 118.933 467.892 115.143 473.245 111.42C487.101 101.783 500.195 92.3626 512.408 82.6516ZM555.616 39.8612C555.617 39.8604 555.606 39.8968 555.581 39.9729C555.603 39.9 555.615 39.862 555.616 39.8612ZM874.471 757.714C874.478 757.7 874.458 757.746 874.403 757.86C874.441 757.775 874.464 757.726 874.471 757.714Z" fill="#6D89FF" stroke="#6D89FF" stroke-width="4" stroke-linecap="round"/>
</svg>
