<svg width="1500" height="1500" viewBox="0 0 1500 1500" fill="none" xmlns="http://www.w3.org/2000/svg">
<path d="M39.8242 70.946C145.382 66.391 33.5294 71.2764 219.567 62.7026C406.24 54.0995 594.298 39.2545 781.286 41.3771C815.625 41.767 830.952 32.5948 822.772 55.8032C817.247 71.4782 805.313 84.7456 793.92 96.3932C728.629 163.144 643.17 207.624 571.168 266.28C533.146 297.254 495.685 329 459.881 362.513C439.583 381.513 290.68 528.759 269.028 566.986C263.121 577.414 264.424 600.485 276.286 602.2C312.825 607.484 349.401 591.519 385.511 583.832C452.286 569.615 517.941 550.399 584.787 536.521C718.981 508.661 832.55 487.477 968.197 484.462C1037.15 482.93 1104.59 492.223 1166.67 522.723C1172.19 525.434 1197.21 541.392 1201.61 548.707C1217.35 574.885 1187.36 617.162 1175.36 635.711C1115.73 727.871 1026.6 782.302 930.116 830.239C839.131 875.444 745.038 914.48 650.197 950.754C576.342 979.002 500.676 1003.52 428.7 1036.5C410.136 1045.01 320.81 1078.99 351.014 1117.15C361.059 1129.84 369.134 1131.82 386.497 1134.35C450.835 1143.73 521.476 1136.47 585.504 1129.87C751.422 1112.76 912.205 1064.26 1077.87 1046C1131.72 1040.07 1186.25 1039.73 1239.78 1048.87C1249.5 1050.53 1273.09 1053.31 1275.62 1067.24C1276.76 1073.51 1275.05 1077.55 1272.13 1083.19C1261.42 1103.83 1242.37 1122.71 1227.42 1139.73C1175.15 1199.19 1115.05 1255.78 1078.5 1327C1058.79 1365.4 1046.84 1412.31 1088.18 1442.05C1112.2 1459.33 1144.66 1460.14 1172.76 1459.61C1219.53 1458.72 1413.69 1435.93 1459.9 1430.13" stroke="#6D89FF" stroke-width="79" stroke-linecap="round"/>
</svg>
