<svg width="20" height="20" viewBox="0 0 20 20" fill="none" xmlns="http://www.w3.org/2000/svg">
<path d="M8.77546 4.38768C8.77546 6.81093 6.81101 8.77536 4.38773 8.77536C1.96445 8.77536 0 6.81093 0 4.38768C0 1.96443 1.96445 0 4.38773 0C6.81101 0 8.77546 1.96443 8.77546 4.38768Z"  fill="#182654"/>
<path d="M8.77546 15.6123C8.77546 18.0356 6.81101 20 4.38773 20C1.96445 20 0 18.0356 0 15.6123C0 13.1891 1.96445 11.2246 4.38773 11.2246C6.81101 11.2246 8.77546 13.1891 8.77546 15.6123Z"  fill="#182654"/>
<path d="M20 4.38768C20 6.81093 18.0355 8.77536 15.6123 8.77536C13.189 8.77536 11.2245 6.81093 11.2245 4.38768C11.2245 1.96443 13.189 0 15.6123 0C18.0355 0 20 1.96443 20 4.38768Z"  fill="#182654"/>
<path d="M20 15.6123C20 18.0356 18.0355 20 15.6123 20C13.189 20 11.2245 18.0356 11.2245 15.6123C11.2245 13.1891 13.189 11.2246 15.6123 11.2246C18.0355 11.2246 20 13.1891 20 15.6123Z"  fill="#182654"/>
</svg>
