<svg width="20" height="14" viewBox="0 0 20 14" fill="none" xmlns="http://www.w3.org/2000/svg">
<path d="M18.583 10.1623C18.7308 10.0576 18.8472 9.91707 18.9207 9.75501C18.9942 9.59296 19.022 9.41509 19.0014 9.23935C18.9808 9.06361 18.9124 8.89622 18.8033 8.75408C18.6942 8.61193 18.5481 8.50006 18.3798 8.42974V7.04777L17.5419 7.39114V8.42974C17.3735 8.50002 17.2273 8.6119 17.1181 8.75409C17.0089 8.89627 16.9406 9.06372 16.92 9.23952C16.8994 9.41533 16.9272 9.59327 17.0007 9.75537C17.0743 9.91747 17.1908 10.058 17.3387 10.1628C17.2072 10.2559 17.1002 10.3776 17.0263 10.5179C16.9525 10.6582 16.9138 10.8133 16.9135 10.9707V11.9802C16.9135 12.0873 16.9576 12.1901 17.0362 12.2658C17.1148 12.3416 17.2213 12.3842 17.3324 12.3842H18.5893C18.7004 12.3842 18.8069 12.3416 18.8855 12.2658C18.9641 12.1901 19.0082 12.0873 19.0082 11.9802V10.9703C19.0079 10.8129 18.9692 10.6578 18.8954 10.5175C18.8215 10.3772 18.7145 10.2555 18.583 10.1623ZM16.2851 7.90418V10.8935C16.2873 11.241 16.1958 11.5832 16.0195 11.8863C15.8433 12.1894 15.5883 12.4431 15.2796 12.6225C13.6777 13.5246 11.8559 14 10.0008 14C8.14575 14 6.32399 13.5246 4.72209 12.6225C4.41341 12.4431 4.15842 12.1894 3.98214 11.8863C3.80586 11.5832 3.71436 11.241 3.71662 10.8935V7.90418L8.85711 10.0008C9.21924 10.1474 9.60807 10.223 10.0008 10.223C10.3936 10.223 10.7824 10.1474 11.1446 10.0008L16.2851 7.90418Z" fill="red"/>
<path d="M19.2328 3.59265L10.8169 0.15894C10.5583 0.054037 10.2806 0 10 0C9.71942 0 9.44168 0.054037 9.18305 0.15894L0.767225 3.59265C0.539752 3.68543 0.34567 3.84077 0.20922 4.03928C0.0727698 4.23778 0 4.47066 0 4.70881C0 4.94696 0.0727698 5.17983 0.20922 5.37834C0.34567 5.57685 0.539752 5.73219 0.767225 5.82497L9.18305 9.25868C9.44165 9.36369 9.71941 9.41779 10 9.41779C10.2806 9.41779 10.5584 9.36369 10.8169 9.25868L19.2328 5.82497C19.4602 5.73219 19.6543 5.57685 19.7908 5.37834C19.9272 5.17983 20 4.94696 20 4.70881C20 4.47066 19.9272 4.23778 19.7908 4.03928C19.6543 3.84077 19.4602 3.68543 19.2328 3.59265Z" fill="red"/>
</svg>
