<svg width="306" height="85" viewBox="0 0 306 85" fill="none" xmlns="http://www.w3.org/2000/svg">
<path d="M38.9691 0H-0.00585938V38.975H38.9691V0Z" fill="#284CE0"/>
<path d="M65.1006 38.975C54.3297 38.975 45.6316 30.2399 45.6316 19.506C45.6316 8.73517 54.3667 0.0370483 65.1006 0.0370483C75.8714 0.0370483 84.5695 8.77218 84.5695 19.506C84.5695 30.2399 75.8344 38.975 65.1006 38.975Z" fill="#FF693B"/>
<path d="M38.9694 84.5383C17.4646 84.5383 -0.00561523 67.1051 -0.00561523 45.5634H38.9694V84.5383Z" fill="#4ED13B"/>
<path d="M45.5945 84.5383V45.5634H84.5694C84.5694 67.1051 67.1362 84.5383 45.5945 84.5383Z" fill="#284CE0"/>
<path d="M155.474 12.3628V34.6818H126.382V12.3628H130.897V30.5733H138.633V12.3628H143.149V30.5733H150.995V12.3628H155.474Z" fill="#182654"/>
<path d="M167.467 26.9086L165.062 29.2035V34.6814H160.842V17.0631H165.062V24.4658L172.279 17.0631H177.572L170.391 23.9846L177.868 34.6814H172.834L167.467 26.9086Z" fill="#182654"/>
<path d="M178.83 25.8722C178.83 20.3943 182.532 16.767 187.936 16.767C193.451 16.767 197.041 20.3573 197.041 25.8722C197.041 31.3502 193.34 34.9775 187.936 34.9775C182.421 34.9775 178.83 31.3872 178.83 25.8722ZM192.673 25.8722C192.673 22.393 190.86 20.2832 187.899 20.2832C184.938 20.2832 183.124 22.393 183.124 25.8722C183.124 29.3515 184.938 31.4612 187.899 31.4612C190.86 31.4612 192.673 29.3145 192.673 25.8722Z" fill="#182654"/>
<path d="M215.733 34.6814H211.513V20.8755H205.184V26.5015C205.184 32.7937 203.777 34.7925 200.002 34.7925C199.373 34.7925 198.67 34.7184 198.188 34.6814V30.8691H199.188C200.594 30.8691 201.001 30.3509 201.001 26.0573V17.0631H215.733V34.6814Z" fill="#182654"/>
<path d="M236.127 31.0171V34.6444C235.831 34.7185 235.35 34.7555 234.609 34.7555C232.426 34.7555 231.315 33.9412 231.019 32.0535C229.724 33.8301 227.429 34.9405 224.838 34.9405C221.433 34.9405 219.064 32.8678 219.064 29.7587C219.064 25.2801 223.283 24.4288 226.651 23.9846C228.946 23.6885 230.427 23.3924 230.427 22.208C230.427 20.9865 229.131 20.1352 227.022 20.1352C225.134 20.1352 223.431 20.9125 222.025 22.319L219.508 19.6911C221.581 17.7664 224.135 16.693 227.244 16.693C231.722 16.693 234.35 18.9138 234.35 22.5781V29.9067C234.35 30.61 234.72 30.9801 235.424 30.9801H236.127V31.0171ZM230.316 27.871V26.0574C229.612 26.4645 228.613 26.6496 227.133 26.8716C225.134 27.2418 223.209 27.5009 223.209 29.4626C223.209 30.795 224.135 31.6464 225.726 31.6464C228.28 31.6093 230.316 29.9067 230.316 27.871Z" fill="#182654"/>
<path d="M145.184 45.6377L138.263 62.7748C136.967 65.995 135.191 68.2528 131.749 68.2528C128.528 68.2528 126.456 65.958 126.345 62.9229L129.935 62.0346C130.009 63.7372 130.712 64.6255 131.934 64.6255C132.637 64.6255 133.266 64.4034 133.747 63.7372L123.569 45.6377H128.602L135.524 59.2216L140.447 45.6377H145.184Z" fill="#182654"/>
<path d="M152.884 60.1837L150.478 62.4785V67.9565H146.259V50.3381H150.478V57.7408L157.696 50.3381H162.989L155.808 57.2596L163.285 67.9565H158.251L152.884 60.1837Z" fill="#182654"/>
<path d="M183.124 59.1471C183.124 64.6251 180.015 68.2524 175.536 68.2524C173.204 68.2524 171.243 67.3641 169.91 65.7355V73.8414H165.691V50.338H169.466L169.688 52.9659C171.021 51.0782 173.093 50.0419 175.573 50.0419C180.126 50.0419 183.124 53.6322 183.124 59.1471ZM178.83 59.1471C178.83 55.7419 177.054 53.5581 174.241 53.5581C171.428 53.5581 169.725 55.7419 169.725 59.1471C169.725 62.5524 171.428 64.7361 174.241 64.7361C177.054 64.7361 178.83 62.5524 178.83 59.1471Z" fill="#182654"/>
<path d="M201.853 64.3291V67.9564C201.557 68.0305 201.075 68.0675 200.335 68.0675C198.151 68.0675 197.041 67.2532 196.745 65.3655C195.449 67.1422 193.155 68.2525 190.564 68.2525C187.158 68.2525 184.79 66.1798 184.79 63.0707C184.79 58.5921 189.009 57.7408 192.377 57.2966C194.672 57.0005 196.153 56.7044 196.153 55.52C196.153 54.2985 194.857 53.4472 192.747 53.4472C190.86 53.4472 189.157 54.2245 187.751 55.631L185.234 53.0031C187.306 51.0784 189.86 50.005 192.969 50.005C197.448 50.005 200.076 52.2258 200.076 55.8901V63.2187C200.076 63.922 200.446 64.2921 201.149 64.2921H201.853V64.3291ZM196.042 61.146V59.3323C195.338 59.7395 194.339 59.9246 192.858 60.1466C190.86 60.5168 188.935 60.7759 188.935 62.7376C188.935 64.07 189.86 64.9214 191.452 64.9214C194.006 64.8843 196.042 63.1817 196.042 61.146Z" fill="#182654"/>
<path d="M202.112 44.231H206.516V48.0063H202.112V44.231ZM205.48 50.3381H209.7V67.9565H205.48V50.3381ZM208.626 44.231H213.031V48.0063H208.626V44.231Z" fill="#182654"/>
<path d="M230.871 50.3381V67.9565H226.652V60.9239H219.027V67.9565H214.807V50.3381H219.027V57.0375H226.652V50.3381H230.871Z" fill="#182654"/>
<path d="M234.35 59.1471C234.35 53.6692 237.978 50.0419 243.345 50.0419C247.268 50.0419 250.377 51.9666 251.376 55.3348L247.342 56.5562C246.713 54.6685 245.269 53.5581 243.308 53.5581C240.495 53.5581 238.718 55.7419 238.718 59.1471C238.718 62.5524 240.495 64.7361 243.308 64.7361C245.306 64.7361 246.713 63.6257 247.416 61.7381L251.413 62.9595C250.414 66.2907 247.305 68.2524 243.382 68.2524C238.015 68.2524 234.35 64.6251 234.35 59.1471Z" fill="#182654"/>
<path d="M268.662 54.1505H262.48V67.9565H258.261V54.1505H252.043V50.3381H268.662V54.1505Z" fill="#182654"/>
<path d="M286.576 63.1447C286.576 66.2538 284.17 67.9565 280.173 67.9565H271.475V50.3381H279.506C283.615 50.3381 286.095 51.8187 286.095 54.9648C286.095 56.8895 285.095 58.259 283.578 58.8882C285.503 59.5544 286.576 61.035 286.576 63.1447ZM275.472 57.4447H279.543C281.246 57.4447 282.023 56.8525 282.023 55.446C282.023 54.2245 281.209 53.5213 279.692 53.5213H275.509V57.4447H275.472ZM282.319 62.6265C282.319 61.2941 281.32 60.4428 279.618 60.4428H275.435V64.7363H279.729C281.394 64.7363 282.319 63.885 282.319 62.6265Z" fill="#182654"/>
<path d="M305.564 64.3291V67.9564C305.268 68.0305 304.787 68.0675 304.046 68.0675C301.863 68.0675 300.752 67.2532 300.456 65.3655C299.161 67.1422 296.866 68.2525 294.275 68.2525C290.87 68.2525 288.501 66.1798 288.501 63.0707C288.501 58.5921 292.72 57.7408 296.088 57.2966C298.383 57.0005 299.864 56.7044 299.864 55.52C299.864 54.2985 298.568 53.4472 296.459 53.4472C294.571 53.4472 292.868 54.2245 291.462 55.631L288.945 53.0031C291.018 51.0784 293.572 50.005 296.681 50.005C301.159 50.005 303.787 52.2258 303.787 55.8901V63.2187C303.787 63.922 304.157 64.2921 304.861 64.2921H305.564V64.3291ZM299.753 61.146V59.3323C299.05 59.7395 298.05 59.9246 296.57 60.1466C294.571 60.5168 292.646 60.7759 292.646 62.7376C292.646 64.07 293.572 64.9214 295.163 64.9214C297.68 64.8843 299.753 63.1817 299.753 61.146Z" fill="#182654"/>
</svg>
