<svg width="182" height="173" viewBox="0 0 182 173" fill="none" xmlns="http://www.w3.org/2000/svg">
<path d="M87.6844 0H48.7095V38.975H87.6844V0Z" fill="#284CE0"/>
<path d="M113.779 38.938C103.008 38.938 94.3101 30.2028 94.3101 19.469C94.3101 8.69812 103.045 0 113.779 0C124.55 0 133.248 8.73513 133.248 19.469C133.248 30.2028 124.55 38.938 113.779 38.938Z" fill="#FF693B"/>
<path d="M87.6844 84.5383C66.1797 84.5383 48.7095 67.1051 48.7095 45.5634H87.6844V84.5383Z" fill="#4ED13B"/>
<path d="M94.3101 84.5383V45.5634H133.248C133.248 67.1051 115.815 84.5383 94.3101 84.5383Z" fill="#284CE0"/>
<path d="M65.1803 111.521V133.84H36.0879V111.521H40.6035V129.731H48.3393V111.521H52.8549V129.731H60.7017V111.521H65.1803Z" fill="#182654"/>
<path d="M77.1727 126.104L74.7669 128.399V133.877H70.5474V116.258H74.7669V123.661L81.9845 116.258H87.2774L80.0968 123.18L87.5735 133.877H82.5397L77.1727 126.104Z" fill="#182654"/>
<path d="M88.5356 125.031C88.5356 119.553 92.237 115.925 97.6409 115.925C103.156 115.925 106.746 119.516 106.746 125.031C106.746 130.508 103.045 134.136 97.6409 134.136C92.1259 134.136 88.5356 130.546 88.5356 125.031ZM102.416 125.031C102.416 121.551 100.602 119.442 97.6409 119.442C94.6798 119.442 92.8662 121.551 92.8662 125.031C92.8662 128.51 94.6798 130.62 97.6409 130.62C100.602 130.62 102.416 128.51 102.416 125.031Z" fill="#182654"/>
<path d="M125.438 133.84H121.218V120.034H114.889V125.66C114.889 131.952 113.483 133.951 109.707 133.951C109.078 133.951 108.375 133.877 107.894 133.84V130.027H108.893C110.299 130.027 110.707 129.509 110.707 125.216V116.221H125.438V133.84Z" fill="#182654"/>
<path d="M145.869 130.212V133.84C145.573 133.914 145.092 133.951 144.352 133.951C142.168 133.951 141.058 133.136 140.761 131.249C139.466 133.025 137.171 134.136 134.58 134.136C131.175 134.136 128.806 132.063 128.806 128.954C128.806 124.475 133.026 123.624 136.394 123.18C138.689 122.884 140.169 122.588 140.169 121.403C140.169 120.182 138.874 119.33 136.764 119.33C134.876 119.33 133.174 120.108 131.767 121.514L129.25 118.886C131.323 116.962 133.877 115.888 136.986 115.888C141.465 115.888 144.093 118.109 144.093 121.773V129.102C144.093 129.805 144.463 130.175 145.166 130.175H145.869V130.212ZM140.058 127.029V125.216C139.355 125.623 138.356 125.808 136.875 126.03C134.876 126.4 132.952 126.659 132.952 128.621C132.952 129.953 133.877 130.805 135.469 130.805C137.985 130.805 140.058 129.102 140.058 127.029Z" fill="#182654"/>
<path d="M21.6157 144.796L14.6943 161.933C13.3988 165.153 11.6222 167.411 8.17993 167.411C4.95978 167.411 2.88703 165.116 2.776 162.081L6.36628 161.193C6.44031 162.895 7.14356 163.784 8.365 163.784C9.06825 163.784 9.69748 163.562 10.1786 162.895L0 144.796H5.0338L11.9553 158.38L16.8781 144.796H21.6157Z" fill="#182654"/>
<path d="M29.3143 159.379L26.9085 161.674V167.152H22.689V149.534H26.9085V156.936L34.1261 149.534H39.419L32.2384 156.455L39.7151 167.152H34.6813L29.3143 159.379Z" fill="#182654"/>
<path d="M59.5172 158.306C59.5172 163.784 56.4081 167.411 51.9295 167.411C49.5977 167.411 47.636 166.523 46.3035 164.894V173H42.084V149.497H45.8593L46.0814 152.125C47.4139 150.237 49.4866 149.201 51.9665 149.201C56.5562 149.201 59.5172 152.791 59.5172 158.306ZM55.2607 158.306C55.2607 154.901 53.4841 152.717 50.6711 152.717C47.8581 152.717 46.1554 154.901 46.1554 158.306C46.1554 161.711 47.8581 163.895 50.6711 163.895C53.4841 163.895 55.2607 161.711 55.2607 158.306Z" fill="#182654"/>
<path d="M78.2828 163.488V167.115C77.9867 167.189 77.5056 167.226 76.7653 167.226C74.5815 167.226 73.4711 166.412 73.175 164.524C71.8796 166.301 69.5847 167.411 66.9938 167.411C63.5886 167.411 61.2197 165.338 61.2197 162.229C61.2197 157.751 65.4392 156.899 68.8074 156.455C71.1023 156.159 72.5828 155.863 72.5828 154.679C72.5828 153.457 71.2873 152.606 69.1776 152.606C67.2899 152.606 65.5873 153.383 64.1808 154.79L61.6639 152.162C63.7366 150.237 66.2905 149.164 69.3997 149.164C73.8783 149.164 76.5062 151.384 76.5062 155.049V162.377C76.5062 163.081 76.8763 163.451 77.5796 163.451H78.2828V163.488ZM72.4718 160.305V158.491C71.7685 158.898 70.7692 159.083 69.2886 159.305C67.2899 159.675 65.3652 159.934 65.3652 161.896C65.3652 163.229 66.2905 164.08 67.8821 164.08C70.436 164.08 72.4718 162.377 72.4718 160.305Z" fill="#182654"/>
<path d="M78.542 143.389H82.9466V147.165H78.542V143.389ZM81.9102 149.497H86.1297V167.115H81.9102V149.497ZM85.0563 143.389H89.4609V147.165H85.0563V143.389Z" fill="#182654"/>
<path d="M107.302 149.497V167.115H103.082V160.082H95.4573V167.115H91.2378V149.497H95.4573V156.196H103.082V149.497H107.302Z" fill="#182654"/>
<path d="M110.781 158.306C110.781 152.828 114.408 149.201 119.775 149.201C123.698 149.201 126.808 151.125 127.807 154.493L123.772 155.715C123.143 153.827 121.7 152.717 119.738 152.717C116.925 152.717 115.148 154.901 115.148 158.306C115.148 161.711 116.925 163.895 119.738 163.895C121.737 163.895 123.143 162.784 123.846 160.897L127.844 162.118C126.845 165.449 123.735 167.411 119.812 167.411C114.408 167.411 110.781 163.784 110.781 158.306Z" fill="#182654"/>
<path d="M145.092 153.346H138.911V167.152H134.691V153.346H128.473V149.534H145.092V153.346Z" fill="#182654"/>
<path d="M162.97 162.303C162.97 165.412 160.564 167.115 156.566 167.115H147.868V149.497H155.9C160.009 149.497 162.488 150.977 162.488 154.123C162.488 156.048 161.489 157.417 159.972 158.047C161.933 158.75 162.97 160.193 162.97 162.303ZM151.866 156.603H155.937C157.64 156.603 158.417 156.011 158.417 154.604C158.417 153.383 157.603 152.68 156.085 152.68H151.903V156.603H151.866ZM158.75 161.785C158.75 160.453 157.751 159.601 156.048 159.601H151.866V163.895H156.159C157.825 163.895 158.75 163.081 158.75 161.785Z" fill="#182654"/>
<path d="M181.994 163.488V167.115C181.698 167.189 181.217 167.226 180.477 167.226C178.293 167.226 177.183 166.412 176.886 164.524C175.591 166.301 173.296 167.411 170.705 167.411C167.3 167.411 164.931 165.338 164.931 162.229C164.931 157.751 169.151 156.899 172.519 156.455C174.814 156.159 176.294 155.863 176.294 154.679C176.294 153.457 174.999 152.606 172.889 152.606C171.001 152.606 169.299 153.383 167.892 154.79L165.375 152.162C167.448 150.237 170.002 149.164 173.111 149.164C177.59 149.164 180.218 151.384 180.218 155.049V162.377C180.218 163.081 180.588 163.451 181.291 163.451H181.994V163.488ZM176.146 160.305V158.491C175.443 158.898 174.444 159.083 172.963 159.305C170.964 159.675 169.04 159.934 169.04 161.896C169.04 163.229 169.965 164.08 171.557 164.08C174.11 164.08 176.146 162.377 176.146 160.305Z" fill="#182654"/>
</svg>
