<svg width="306" height="85" viewBox="0 0 306 85" fill="none" xmlns="http://www.w3.org/2000/svg">
<path d="M38.9691 0H-0.00585938V38.975H38.9691V0Z" fill="white"/>
<path d="M65.1006 38.9749C54.3297 38.9749 45.6316 30.2398 45.6316 19.5059C45.6316 8.73505 54.3667 0.0369263 65.1006 0.0369263C75.8714 0.0369263 84.5695 8.77206 84.5695 19.5059C84.5695 30.2398 75.8344 38.9749 65.1006 38.9749Z" fill="white"/>
<path d="M38.9694 84.5382C17.4646 84.5382 -0.00561523 67.105 -0.00561523 45.5632H38.9694V84.5382Z" fill="white"/>
<path d="M45.5945 84.5382V45.5632H84.5694C84.5694 67.105 67.1362 84.5382 45.5945 84.5382Z" fill="white"/>
<path d="M155.005 12.3624V34.6814H125.912V12.3624H130.428V30.5729H138.164V12.3624H142.679V30.5729H150.526V12.3624H155.005Z" fill="white"/>
<path d="M166.998 26.9086L164.592 29.2034V34.6814H160.372V17.063H164.592V24.4657L171.809 17.063H177.102L169.922 23.9845L177.398 34.6814H172.365L166.998 26.9086Z" fill="white"/>
<path d="M178.361 25.8722C178.361 20.3943 182.062 16.767 187.466 16.767C192.981 16.767 196.571 20.3573 196.571 25.8722C196.571 31.3502 192.87 34.9775 187.466 34.9775C181.951 34.9775 178.361 31.3872 178.361 25.8722ZM192.204 25.8722C192.204 22.393 190.39 20.2832 187.429 20.2832C184.468 20.2832 182.654 22.393 182.654 25.8722C182.654 29.3515 184.468 31.4612 187.429 31.4612C190.39 31.4612 192.204 29.3145 192.204 25.8722Z" fill="white"/>
<path d="M215.263 34.6814H211.044V20.8754H204.714V26.5014C204.714 32.7937 203.308 34.7924 199.532 34.7924C198.903 34.7924 198.2 34.7184 197.719 34.6814V30.869H198.718C200.125 30.869 200.532 30.3508 200.532 26.0573V17.063H215.263V34.6814Z" fill="white"/>
<path d="M235.657 31.0171V34.6444C235.361 34.7184 234.88 34.7554 234.14 34.7554C231.956 34.7554 230.845 33.9411 230.549 32.0534C229.254 33.8301 226.959 34.9405 224.368 34.9405C220.963 34.9405 218.594 32.8677 218.594 29.7586C218.594 25.28 222.814 24.4287 226.182 23.9845C228.477 23.6884 229.957 23.3923 229.957 22.2079C229.957 20.9865 228.662 20.1352 226.552 20.1352C224.664 20.1352 222.962 20.9124 221.555 22.3189L219.038 19.691C221.111 17.7663 223.665 16.6929 226.774 16.6929C231.253 16.6929 233.88 18.9137 233.88 22.578V29.9067C233.88 30.6099 234.251 30.9801 234.954 30.9801H235.657V31.0171ZM229.846 27.8709V26.0573C229.143 26.4644 228.143 26.6495 226.663 26.8716C224.664 27.2417 222.739 27.5008 222.739 29.4625C222.739 30.795 223.665 31.6463 225.256 31.6463C227.81 31.6093 229.846 29.9067 229.846 27.8709Z" fill="white"/>
<path d="M144.715 45.6373L137.793 62.7744C136.498 65.9946 134.721 68.2524 131.279 68.2524C128.059 68.2524 125.986 65.9576 125.875 62.9225L129.465 62.0342C129.539 63.7368 130.243 64.6251 131.464 64.6251C132.167 64.6251 132.797 64.403 133.278 63.7368L123.099 45.6373H128.133L135.054 59.2211L139.977 45.6373H144.715Z" fill="white"/>
<path d="M152.414 60.1835L150.009 62.4784V67.9563H145.789V50.338H150.009V57.7407L157.226 50.338H162.519L155.338 57.2595L162.815 67.9563H157.781L152.414 60.1835Z" fill="white"/>
<path d="M182.654 59.1472C182.654 64.6252 179.545 68.2525 175.066 68.2525C172.735 68.2525 170.773 67.3641 169.44 65.7356V73.8415H165.221V50.338H168.996L169.218 52.966C170.551 51.0783 172.624 50.0419 175.103 50.0419C179.656 50.0419 182.654 53.6322 182.654 59.1472ZM178.361 59.1472C178.361 55.742 176.584 53.5582 173.771 53.5582C170.958 53.5582 169.255 55.742 169.255 59.1472C169.255 62.5524 170.958 64.7362 173.771 64.7362C176.584 64.7362 178.361 62.5524 178.361 59.1472Z" fill="white"/>
<path d="M201.383 64.329V67.9563C201.087 68.0303 200.606 68.0674 199.865 68.0674C197.682 68.0674 196.571 67.2531 196.275 65.3654C194.98 67.142 192.685 68.2524 190.094 68.2524C186.689 68.2524 184.32 66.1797 184.32 63.0706C184.32 58.592 188.539 57.7407 191.908 57.2965C194.202 57.0004 195.683 56.7043 195.683 55.5199C195.683 54.2984 194.387 53.4471 192.278 53.4471C190.39 53.4471 188.687 54.2244 187.281 55.6309L184.764 53.003C186.837 51.0783 189.391 50.0049 192.5 50.0049C196.978 50.0049 199.606 52.2257 199.606 55.89V63.2186C199.606 63.9219 199.976 64.292 200.68 64.292H201.383V64.329ZM195.572 61.1459V59.3322C194.869 59.7394 193.869 59.9244 192.389 60.1465C190.39 60.5167 188.465 60.7757 188.465 62.7374C188.465 64.0699 189.391 64.9212 190.982 64.9212C193.536 64.8842 195.572 63.1816 195.572 61.1459Z" fill="white"/>
<path d="M201.642 44.2308H206.047V48.0062H201.642V44.2308ZM205.01 50.338H209.23V67.9563H205.01V50.338ZM208.156 44.2308H212.561V48.0062H208.156V44.2308Z" fill="white"/>
<path d="M230.401 50.338V67.9563H226.182V60.9238H218.557V67.9563H214.338V50.338H218.557V57.0374H226.182V50.338H230.401Z" fill="white"/>
<path d="M233.881 59.1472C233.881 53.6692 237.508 50.0419 242.875 50.0419C246.798 50.0419 249.907 51.9666 250.907 55.3348L246.872 56.5563C246.243 54.6686 244.8 53.5582 242.838 53.5582C240.025 53.5582 238.248 55.742 238.248 59.1472C238.248 62.5524 240.025 64.7362 242.838 64.7362C244.837 64.7362 246.243 63.6258 246.946 61.7381L250.944 62.9596C249.944 66.2908 246.835 68.2525 242.912 68.2525C237.545 68.2525 233.881 64.6252 233.881 59.1472Z" fill="white"/>
<path d="M268.192 54.1504H262.011V67.9563H257.791V54.1504H251.573V50.338H268.192V54.1504Z" fill="white"/>
<path d="M286.106 63.1446C286.106 66.2537 283.7 67.9563 279.703 67.9563H271.005V50.338H279.037C283.145 50.338 285.625 51.8185 285.625 54.9647C285.625 56.8894 284.626 58.2589 283.108 58.8881C285.033 59.5543 286.106 61.0348 286.106 63.1446ZM275.002 57.4446H279.074C280.776 57.4446 281.554 56.8523 281.554 55.4458C281.554 54.2244 280.739 53.5212 279.222 53.5212H275.039V57.4446H275.002ZM281.85 62.6264C281.85 61.2939 280.85 60.4426 279.148 60.4426H274.965V64.7362H279.259C280.924 64.7362 281.85 63.8849 281.85 62.6264Z" fill="white"/>
<path d="M305.094 64.329V67.9563C304.798 68.0303 304.317 68.0674 303.577 68.0674C301.393 68.0674 300.282 67.2531 299.986 65.3654C298.691 67.142 296.396 68.2524 293.805 68.2524C290.4 68.2524 288.031 66.1797 288.031 63.0706C288.031 58.592 292.251 57.7407 295.619 57.2965C297.914 57.0004 299.394 56.7043 299.394 55.5199C299.394 54.2984 298.099 53.4471 295.989 53.4471C294.101 53.4471 292.399 54.2244 290.992 55.6309L288.475 53.003C290.548 51.0783 293.102 50.0049 296.211 50.0049C300.69 50.0049 303.317 52.2257 303.317 55.89V63.2186C303.317 63.9219 303.688 64.292 304.391 64.292H305.094V64.329ZM299.283 61.1459V59.3322C298.58 59.7394 297.58 59.9244 296.1 60.1465C294.101 60.5167 292.176 60.7757 292.176 62.7374C292.176 64.0699 293.102 64.9212 294.693 64.9212C297.21 64.8842 299.283 63.1816 299.283 61.1459Z" fill="white"/>
</svg>
