<svg width="20" height="20" viewBox="0 0 20 20" fill="none" xmlns="http://www.w3.org/2000/svg">
<path d="M10.7378 11.229C10.7378 11.229 10.7378 11.229 10.7378 11.229C10.672 11.3615 10.585 11.4823 10.4802 11.5867C9.92458 12.1425 9.00898 12.1191 8.48377 11.5163C7.88103 10.9911 7.85758 10.0755 8.41326 9.51974C8.51782 9.41509 8.63867 9.32811 8.77111 9.26219C9.23324 9.03246 9.25464 8.42853 8.88972 8.06361L7.74862 6.9225C7.3842 6.55807 7.3842 5.96722 7.74862 5.60279L8.88946 4.46194C9.25453 4.09687 9.8588 4.11822 10.0885 4.58062C10.1543 4.71305 10.2413 4.83386 10.346 4.93831C10.9018 5.49416 11.8175 5.4705 12.3427 4.86747C12.9458 4.34226 12.9694 3.42633 12.4136 2.87052C12.3091 2.76586 12.1883 2.67888 12.0559 2.61301C11.5937 2.38333 11.5722 1.77925 11.9372 1.41431L13.0782 0.27332C13.4426 -0.0911068 14.0334 -0.0911064 14.3979 0.27332L15.5388 1.41431C15.9038 1.77927 16.5079 1.75783 16.7375 1.29561C16.8034 1.16321 16.8904 1.04241 16.9951 0.937964C17.5509 0.382118 18.4665 0.405731 18.9917 1.00832C19.5944 1.53353 19.6179 2.44913 19.062 3.0049C18.9575 3.10956 18.8367 3.19656 18.7044 3.2625C18.2422 3.49218 18.2207 4.09622 18.5857 4.46117L19.7267 5.60218C20.0911 5.96661 20.0911 6.55746 19.7267 6.92189L18.5857 8.06288C18.2208 8.42782 17.6167 8.40636 17.387 7.94418C17.3212 7.81177 17.2342 7.69096 17.1295 7.58649C16.5737 7.03065 15.6578 7.0543 15.1325 7.65733C14.5295 8.18254 14.5059 9.09827 15.0617 9.65412C15.1662 9.75881 15.287 9.84579 15.4194 9.91163C15.8818 10.1412 15.9031 10.7455 15.538 11.1106L14.3971 12.2515C14.0327 12.6159 13.4419 12.6159 13.0774 12.2515L11.8148 10.9888C11.5157 10.6897 11.0211 10.7059 10.8174 11.0767C10.7898 11.1268 10.7633 11.1776 10.7378 11.229C10.7378 11.229 10.7378 11.229 10.7378 11.229Z" fill="red"/>
<path d="M1.41431 11.9365C1.77926 11.5716 1.75778 10.9675 1.29561 10.7378C1.16321 10.672 1.04241 10.585 0.937961 10.4803C0.38212 9.92465 0.405733 9.00905 1.00831 8.48368C1.53352 7.88109 2.44912 7.85764 3.00488 8.41332C3.1095 8.51785 3.1965 8.63865 3.26247 8.77101C3.49205 9.23333 4.09618 9.2547 4.46117 8.8897L5.60214 7.74872C5.96657 7.38429 6.55741 7.38429 6.92184 7.74872L7.59202 8.41891C7.66748 8.49437 7.66224 8.61774 7.58676 8.69319C7.0921 9.18798 6.82205 9.8728 6.84599 10.5722C6.86895 11.2447 7.1631 11.8859 7.65614 12.344C8.1142 12.8368 8.7554 13.131 9.42785 13.1541C10.1273 13.1781 10.8121 12.908 11.3069 12.4133C11.3823 12.3379 11.5056 12.3325 11.5811 12.408L12.2514 13.0783C12.6158 13.4427 12.6158 14.0336 12.2514 14.398L11.1103 15.5391C10.7454 15.9041 10.7668 16.508 11.2289 16.7377C11.3614 16.8035 11.4823 16.8905 11.5867 16.9952C12.1424 17.5509 12.119 18.4665 11.5162 18.9917C10.991 19.5944 10.0754 19.6179 9.51979 19.0622C9.41504 18.9577 9.32804 18.8368 9.26223 18.7043C9.03255 18.2422 8.42852 18.2207 8.06357 18.5857L6.92257 19.7267C6.55814 20.0911 5.9673 20.0911 5.60287 19.7267L4.46189 18.5857C4.09692 18.2207 4.11832 17.6166 4.58059 17.387C4.71301 17.3211 4.83382 17.2342 4.93828 17.1295C5.49412 16.5736 5.47046 15.6579 4.86744 15.1327C4.34223 14.5297 3.42631 14.506 2.8705 15.0618C2.76584 15.1663 2.67886 15.2871 2.61299 15.4195C2.38331 15.8817 1.77925 15.9032 1.41431 15.5382L0.273317 14.3972C-0.0911039 14.0328 -0.0911059 13.442 0.273312 13.0775L1.41431 11.9365Z" fill="red"/>
</svg>
