<svg width="22" height="21" viewBox="0 0 22 21" fill="none" xmlns="http://www.w3.org/2000/svg">
<path d="M22 1.13921L21.5009 4.97475C20.281 4.89227 19.3384 5.11223 18.673 5.63463C18.0076 6.15703 17.564 6.88565 17.3422 7.82047C17.1204 8.7553 17.0788 9.81385 17.2174 10.9961H22V20.9355H12.8091V10.1713C12.8091 6.92689 13.5854 4.47984 15.138 2.83015C16.7183 1.15296 19.0057 0.589315 22 1.13921ZM9.19093 1.13921L8.69187 4.97475C7.47196 4.89227 6.5293 5.11223 5.86389 5.63463C5.19849 6.15703 4.75488 6.88565 4.53308 7.82047C4.31128 8.7553 4.26969 9.81385 4.40832 10.9961H9.19093V20.9355H0V10.1713C0 6.92689 0.776307 4.47984 2.32892 2.83015C3.90926 1.15296 6.1966 0.589315 9.19093 1.13921Z" fill="#182654"/>
</svg>
