<svg width="20" height="20" viewBox="0 0 20 20" fill="none" xmlns="http://www.w3.org/2000/svg">
<path d="M19.6799 18.123L15.5427 13.9644C16.8771 12.4329 17.6082 10.506 17.6082 8.49999C17.6082 3.81317 13.6586 0 8.80411 0C3.9496 0 0 3.81317 0 8.49999C0 13.1868 3.9496 17 8.80411 17C10.6266 17 12.3633 16.4693 13.8481 15.4619L18.0247 19.66C18.2433 19.8792 18.5373 20 18.8523 20C19.1505 20 19.4334 19.8902 19.6481 19.6907C20.1044 19.2668 20.119 18.5639 19.6799 18.123ZM8.80411 2.21739C12.3924 2.21739 15.3115 5.03569 15.3115 8.49999C15.3115 11.9643 12.3924 14.7826 8.80411 14.7826C5.21586 14.7826 2.29673 11.9643 2.29673 8.49999C2.29673 5.03569 5.21586 2.21739 8.80411 2.21739Z" fill="#182654"/>
</svg>
